<svg width="85" height="83" viewBox="0 0 85 83" fill="none" xmlns="http://www.w3.org/2000/svg">
<path d="M66.2186 79.0603H38.7259C30.1236 79.0603 23.15 72.0867 23.15 63.4844L23.15 18.819C23.15 10.2166 30.1236 3.2431 38.7259 3.2431L56.4291 3.2431L81.7945 28.6084L81.7945 63.4844C81.7945 72.0868 74.8209 79.0603 66.2186 79.0603Z" fill="#EEF1F7" stroke="#CACFDB" stroke-width="6.23035"/>
<rect x="3.11517" y="39.4965" width="51.0121" height="27.1611" rx="7.78793" fill="#D82042" stroke="#CACFDB" stroke-width="6.23035"/>
<path d="M8.70815 61.1865V61.9653H9.48694H11.8947H12.6735V61.1865L12.6735 56.3549H15.1675C16.4944 56.3549 17.6602 56.1129 18.6229 55.5794L18.6244 55.5786C19.5683 55.0528 20.2944 54.3274 20.7749 53.4038C21.2494 52.4965 21.4788 51.4876 21.4788 50.3943C21.4788 49.3072 21.2524 48.3042 20.7837 47.4023C20.3039 46.4738 19.5803 45.7467 18.6385 45.2248C17.6754 44.6911 16.5067 44.4492 15.1753 44.4492H9.48694H8.70815V45.228L8.70815 61.1865ZM14.9493 52.7558H12.6735L12.6735 48.0718H14.9181C15.6418 48.0718 16.1441 48.1931 16.4792 48.3749L16.4792 48.3749L16.4822 48.3765C16.8436 48.5705 17.0827 48.8216 17.2341 49.1311C17.4029 49.4765 17.4978 49.8915 17.4978 50.3943C17.4978 50.8968 17.403 51.3158 17.2326 51.6683C17.0783 51.9873 16.837 52.2467 16.4787 52.4494C16.1432 52.6342 15.6505 52.7558 14.9493 52.7558ZM22.7439 61.1865V61.9653H23.5227H28.689C30.4115 61.9653 31.9309 61.6255 33.2145 60.9079L33.2168 60.9065C34.4966 60.1852 35.4766 59.1508 36.1473 57.8218C36.8221 56.4946 37.1431 54.9396 37.1431 53.1839C37.1431 51.4345 36.8252 49.8874 36.1555 48.5703C35.4914 47.2486 34.5256 46.2211 33.2653 45.509C32.0037 44.7909 30.5224 44.4492 28.8526 44.4492H23.5227H22.7439V45.228L22.7439 61.1865ZM32.6859 50.3179L32.6875 50.3214C33.0289 51.0663 33.2167 52.0113 33.2167 53.1839C33.2167 54.3671 33.0288 55.3201 32.6873 56.0703C32.3527 56.8001 31.8601 57.342 31.2016 57.7206C30.5449 58.0929 29.6773 58.3038 28.5565 58.3038H26.7093L26.7093 48.1107H28.7045C29.7698 48.1107 30.6008 48.3176 31.2378 48.6847L31.6266 48.0099L31.2378 48.6847C31.8725 49.0503 32.3542 49.5846 32.6859 50.3179ZM38.5797 61.1865V61.9653H39.3585H41.7663H42.5451V61.1865L42.5451 55.0069H48.5455H49.3243V54.2281V52.1631V51.3843H48.5455H42.5451V48.0796H49.2546H50.0334V47.3008V45.228V44.4492H49.2546H39.3585H38.5797V45.228V61.1865Z" fill="white" stroke="#CACFDB" stroke-width="1.55759"/>
</svg>
