<svg width="566" height="227" viewBox="0 0 566 227" fill="none" xmlns="http://www.w3.org/2000/svg">
<ellipse cx="9.72182" cy="9.85337" rx="9.72182" ry="9.85337" transform="matrix(-0.707107 -0.707107 -0.707107 0.707107 126.979 113.044)" fill="#B6EDEC"/>
<ellipse cx="8.04145" cy="8.21115" rx="8.04145" ry="8.21115" transform="matrix(0.707107 0.707107 0.707107 -0.707107 117.375 97.8004)" fill="#B6EDEC"/>
<ellipse cx="7.14495" cy="7.29573" rx="7.14495" ry="7.29573" transform="matrix(0.707107 0.707107 0.707107 -0.707107 132.936 83.2338)" fill="#B6EDEC"/>
<ellipse cx="5.62226" cy="5.7409" rx="5.62226" ry="5.7409" transform="matrix(0.707107 0.707107 0.707107 -0.707107 148.57 69.9187)" fill="#B6EDEC"/>
<ellipse cx="3.43958" cy="3.51216" rx="3.43958" ry="3.51216" transform="matrix(0.707107 0.707107 0.707107 -0.707107 162.337 59.1336)" fill="#B6EDEC"/>
<ellipse cx="8.05324" cy="8.19912" rx="8.05324" ry="8.19912" transform="matrix(-0.707107 0.707107 0.707107 0.707107 128.468 117.519)" fill="#B6EDEC"/>
<ellipse cx="7.15543" cy="7.28505" rx="7.15543" ry="7.28505" transform="matrix(-0.707107 0.707107 0.707107 0.707107 143.011 133.058)" fill="#B6EDEC"/>
<ellipse cx="5.6305" cy="5.7325" rx="5.6305" ry="5.7325" transform="matrix(-0.707107 0.707107 0.707107 0.707107 156.304 148.673)" fill="#B6EDEC"/>
<ellipse cx="3.44462" cy="3.50702" rx="3.44462" ry="3.50702" transform="matrix(-0.707107 0.707107 0.707107 0.707107 167.068 162.423)" fill="#B6EDEC"/>
<ellipse cx="8.04145" cy="8.21115" rx="8.04145" ry="8.21115" transform="matrix(-0.707107 -0.707107 -0.707107 0.707107 108.899 128.474)" fill="#B6EDEC"/>
<ellipse cx="7.14495" cy="7.29573" rx="7.14495" ry="7.29573" transform="matrix(-0.707107 -0.707107 -0.707107 0.707107 93.3384 143.04)" fill="#B6EDEC"/>
<ellipse cx="5.62226" cy="5.7409" rx="5.62226" ry="5.7409" transform="matrix(-0.707107 -0.707107 -0.707107 0.707107 77.704 156.355)" fill="#B6EDEC"/>
<ellipse cx="3.43958" cy="3.51216" rx="3.43958" ry="3.51216" transform="matrix(-0.707107 -0.707107 -0.707107 0.707107 63.9374 167.141)" fill="#B6EDEC"/>
<ellipse cx="8.05324" cy="8.19912" rx="8.05324" ry="8.19912" transform="matrix(0.707107 -0.707107 -0.707107 -0.707107 97.6408 108.921)" fill="#B6EDEC"/>
<ellipse cx="7.15543" cy="7.28505" rx="7.15543" ry="7.28505" transform="matrix(0.707107 -0.707107 -0.707107 -0.707107 83.097 93.3822)" fill="#B6EDEC"/>
<ellipse cx="5.6305" cy="5.7325" rx="5.6305" ry="5.7325" transform="matrix(0.707107 -0.707107 -0.707107 -0.707107 69.8047 77.7675)" fill="#B6EDEC"/>
<ellipse cx="3.44462" cy="3.50702" rx="3.44462" ry="3.50702" transform="matrix(0.707107 -0.707107 -0.707107 -0.707107 59.0399 64.0166)" fill="#B6EDEC"/>
<ellipse cx="7.15543" cy="7.28505" rx="7.15543" ry="7.28505" transform="matrix(0.707107 -0.707107 -0.707107 -0.707107 113.099 95.8468)" fill="#B6EDEC"/>
<ellipse cx="5.6305" cy="5.7325" rx="5.6305" ry="5.7325" transform="matrix(0.707107 -0.707107 -0.707107 -0.707107 97.8169 81.5596)" fill="#B6EDEC"/>
<ellipse cx="3.44462" cy="3.50702" rx="3.44462" ry="3.50702" transform="matrix(0.707107 -0.707107 -0.707107 -0.707107 85.8304 68.6991)" fill="#B6EDEC"/>
<ellipse cx="2.62351" cy="2.67103" rx="2.62351" ry="2.67103" transform="matrix(0.707107 -0.707107 -0.707107 -0.707107 74.8742 58.7382)" fill="#B6EDEC"/>
<ellipse cx="7.14495" cy="7.29573" rx="7.14495" ry="7.29573" transform="matrix(-0.707107 -0.707107 -0.707107 0.707107 94.9852 113.565)" fill="#B6EDEC"/>
<ellipse cx="5.62225" cy="5.7409" rx="5.62225" ry="5.7409" transform="matrix(-0.707107 -0.707107 -0.707107 0.707107 80.6755 128.868)" fill="#B6EDEC"/>
<ellipse cx="3.43958" cy="3.51216" rx="3.43958" ry="3.51216" transform="matrix(-0.707107 -0.707107 -0.707107 0.707107 67.7974 140.874)" fill="#B6EDEC"/>
<ellipse cx="2.61967" cy="2.67495" rx="2.61967" ry="2.67495" transform="matrix(-0.707107 -0.707107 -0.707107 0.707107 57.8204 151.844)" fill="#B6EDEC"/>
<ellipse cx="112.975" cy="85.4701" rx="7.14495" ry="7.29573" transform="rotate(-135 112.975 85.4701)" fill="#B6EDEC"/>
<ellipse cx="128.256" cy="73.3367" rx="5.62225" ry="5.7409" transform="rotate(-135 128.256 73.3367)" fill="#B6EDEC"/>
<ellipse cx="140.229" cy="63.5778" rx="3.43958" ry="3.51216" transform="rotate(-135 140.229 63.5778)" fill="#B6EDEC"/>
<ellipse cx="151.187" cy="54.7727" rx="2.61967" ry="2.67495" transform="rotate(-135 151.187 54.7727)" fill="#B6EDEC"/>
<ellipse cx="7.14495" cy="7.29573" rx="7.14495" ry="7.29573" transform="matrix(0.707107 0.707107 0.707107 -0.707107 130.654 113.466)" fill="#B6EDEC"/>
<ellipse cx="5.62225" cy="5.7409" rx="5.62225" ry="5.7409" transform="matrix(0.707107 0.707107 0.707107 -0.707107 144.963 98.1625)" fill="#B6EDEC"/>
<ellipse cx="3.43958" cy="3.51216" rx="3.43958" ry="3.51216" transform="matrix(0.707107 0.707107 0.707107 -0.707107 157.841 86.1572)" fill="#B6EDEC"/>
<ellipse cx="2.61967" cy="2.67495" rx="2.61967" ry="2.67495" transform="matrix(0.707107 0.707107 0.707107 -0.707107 167.818 75.1864)" fill="#B6EDEC"/>
<ellipse cx="113.161" cy="141.063" rx="7.14495" ry="7.29573" transform="rotate(45 113.161 141.063)" fill="#B6EDEC"/>
<ellipse cx="97.8802" cy="153.197" rx="5.62225" ry="5.7409" transform="rotate(45 97.8802 153.197)" fill="#B6EDEC"/>
<ellipse cx="85.9075" cy="162.955" rx="3.43958" ry="3.51216" transform="rotate(45 85.9075 162.955)" fill="#B6EDEC"/>
<ellipse cx="74.9489" cy="171.76" rx="2.61967" ry="2.67495" transform="rotate(45 74.9489 171.76)" fill="#B6EDEC"/>
<ellipse cx="84.9117" cy="113.732" rx="7.15542" ry="7.28505" transform="rotate(135 84.9117 113.732)" fill="#B6EDEC"/>
<ellipse cx="72.8007" cy="98.469" rx="5.6305" ry="5.73249" transform="rotate(135 72.8007 98.469)" fill="#B6EDEC"/>
<ellipse cx="63.0592" cy="86.5105" rx="3.44462" ry="3.50702" transform="rotate(135 63.0592 86.5105)" fill="#B6EDEC"/>
<ellipse cx="54.2702" cy="75.5648" rx="2.62351" ry="2.67103" transform="rotate(135 54.2702 75.5648)" fill="#B6EDEC"/>
<ellipse cx="140.671" cy="113.299" rx="7.15542" ry="7.28505" transform="rotate(-45 140.671 113.299)" fill="#B6EDEC"/>
<ellipse cx="152.782" cy="128.562" rx="5.6305" ry="5.73249" transform="rotate(-45 152.782 128.562)" fill="#B6EDEC"/>
<ellipse cx="162.523" cy="140.52" rx="3.44462" ry="3.50702" transform="rotate(-45 162.523 140.52)" fill="#B6EDEC"/>
<ellipse cx="171.312" cy="151.466" rx="2.62351" ry="2.67103" transform="rotate(-45 171.312 151.466)" fill="#B6EDEC"/>
<ellipse cx="7.15543" cy="7.28505" rx="7.15543" ry="7.28505" transform="matrix(-0.707107 0.707107 0.707107 0.707107 112.483 131.184)" fill="#B6EDEC"/>
<ellipse cx="5.6305" cy="5.7325" rx="5.6305" ry="5.7325" transform="matrix(-0.707107 0.707107 0.707107 0.707107 127.766 145.471)" fill="#B6EDEC"/>
<ellipse cx="3.44462" cy="3.50702" rx="3.44462" ry="3.50702" transform="matrix(-0.707107 0.707107 0.707107 0.707107 139.752 158.332)" fill="#B6EDEC"/>
<ellipse cx="2.62351" cy="2.67103" rx="2.62351" ry="2.67103" transform="matrix(-0.707107 0.707107 0.707107 0.707107 150.708 168.293)" fill="#B6EDEC"/>
<path d="M219.27 102.602V109H198.078V102.602H219.27ZM200.758 69.1875V109H192.555V69.1875H200.758ZM216.508 85.4023V91.6367H198.078V85.4023H216.508ZM219.242 69.1875V75.6133H198.078V69.1875H219.242ZM251.501 98.582C251.501 97.8711 251.392 97.2331 251.173 96.668C250.973 96.0846 250.59 95.556 250.025 95.082C249.46 94.5898 248.667 94.1068 247.646 93.6328C246.625 93.1589 245.303 92.6667 243.681 92.1562C241.876 91.5729 240.163 90.9167 238.54 90.1875C236.936 89.4583 235.514 88.6107 234.275 87.6445C233.053 86.6602 232.087 85.5208 231.376 84.2266C230.684 82.9323 230.337 81.4284 230.337 79.7148C230.337 78.056 230.702 76.5521 231.431 75.2031C232.16 73.8359 233.181 72.6693 234.493 71.7031C235.806 70.7188 237.355 69.9622 239.142 69.4336C240.947 68.9049 242.924 68.6406 245.075 68.6406C248.01 68.6406 250.572 69.1693 252.759 70.2266C254.947 71.2839 256.642 72.7331 257.845 74.5742C259.066 76.4154 259.677 78.5208 259.677 80.8906H251.529C251.529 79.724 251.283 78.7031 250.79 77.8281C250.316 76.9349 249.587 76.2331 248.603 75.7227C247.637 75.2122 246.415 74.957 244.939 74.957C243.517 74.957 242.332 75.1758 241.384 75.6133C240.436 76.0326 239.725 76.6068 239.251 77.3359C238.777 78.0469 238.54 78.849 238.54 79.7422C238.54 80.4167 238.704 81.0273 239.033 81.5742C239.379 82.1211 239.889 82.6315 240.564 83.1055C241.238 83.5794 242.068 84.026 243.052 84.4453C244.036 84.8646 245.176 85.2747 246.47 85.6758C248.639 86.332 250.544 87.0703 252.185 87.8906C253.844 88.7109 255.229 89.6315 256.341 90.6523C257.453 91.6732 258.292 92.8307 258.857 94.125C259.422 95.4193 259.704 96.8867 259.704 98.5273C259.704 100.259 259.367 101.809 258.693 103.176C258.018 104.543 257.043 105.701 255.767 106.648C254.491 107.596 252.969 108.316 251.2 108.809C249.432 109.301 247.454 109.547 245.267 109.547C243.298 109.547 241.357 109.292 239.443 108.781C237.529 108.253 235.788 107.46 234.22 106.402C232.671 105.345 231.431 103.996 230.501 102.355C229.572 100.715 229.107 98.7734 229.107 96.5312H237.337C237.337 97.7708 237.529 98.819 237.911 99.6758C238.294 100.533 238.832 101.225 239.525 101.754C240.236 102.283 241.074 102.665 242.04 102.902C243.025 103.139 244.1 103.258 245.267 103.258C246.689 103.258 247.855 103.057 248.767 102.656C249.697 102.255 250.38 101.699 250.818 100.988C251.273 100.277 251.501 99.4753 251.501 98.582ZM303.557 88.1914V103.969C302.937 104.716 301.98 105.527 300.686 106.402C299.392 107.259 297.724 107.997 295.682 108.617C293.641 109.237 291.17 109.547 288.272 109.547C285.702 109.547 283.359 109.128 281.245 108.289C279.13 107.432 277.307 106.184 275.776 104.543C274.263 102.902 273.096 100.897 272.276 98.5273C271.456 96.1393 271.045 93.4141 271.045 90.3516V87.8633C271.045 84.8008 271.437 82.0755 272.221 79.6875C273.023 77.2995 274.163 75.2852 275.639 73.6445C277.116 72.0039 278.875 70.7552 280.917 69.8984C282.958 69.0417 285.228 68.6133 287.725 68.6133C291.189 68.6133 294.032 69.1784 296.256 70.3086C298.48 71.4206 300.176 72.9701 301.342 74.957C302.527 76.9258 303.256 79.1862 303.53 81.7383H295.573C295.372 80.3893 294.989 79.2135 294.424 78.2109C293.859 77.2083 293.048 76.4245 291.991 75.8594C290.952 75.2943 289.603 75.0117 287.944 75.0117C286.577 75.0117 285.355 75.2943 284.28 75.8594C283.223 76.4062 282.329 77.2174 281.6 78.293C280.871 79.3685 280.315 80.6992 279.932 82.2852C279.549 83.8711 279.358 85.7122 279.358 87.8086V90.3516C279.358 92.4297 279.558 94.2708 279.96 95.875C280.361 97.4609 280.953 98.8008 281.737 99.8945C282.539 100.97 283.523 101.781 284.69 102.328C285.857 102.875 287.215 103.148 288.764 103.148C290.058 103.148 291.134 103.039 291.991 102.82C292.866 102.602 293.568 102.337 294.096 102.027C294.643 101.699 295.062 101.389 295.354 101.098V94.043H287.862V88.1914H303.557ZM324.715 67V109H316.812V67H324.715ZM346.72 105.664L354.568 79.4141H363.017L351.122 113.457C350.867 114.204 350.521 115.007 350.083 115.863C349.664 116.72 349.09 117.531 348.36 118.297C347.65 119.081 346.747 119.719 345.653 120.211C344.578 120.703 343.256 120.949 341.689 120.949C340.941 120.949 340.331 120.904 339.857 120.812C339.383 120.721 338.818 120.594 338.161 120.43V114.66C338.362 114.66 338.571 114.66 338.79 114.66C339.009 114.678 339.219 114.688 339.419 114.688C340.458 114.688 341.306 114.569 341.962 114.332C342.618 114.095 343.147 113.73 343.548 113.238C343.949 112.764 344.268 112.145 344.505 111.379L346.72 105.664ZM343.439 79.4141L349.864 100.852L350.985 109.191L345.626 109.766L334.989 79.4141H343.439ZM387.373 79.4141V84.9922H370.147V79.4141H387.373ZM374.413 72.1133H382.288V100.086C382.288 100.943 382.397 101.599 382.616 102.055C382.853 102.51 383.199 102.829 383.655 103.012C384.11 103.176 384.685 103.258 385.377 103.258C385.87 103.258 386.307 103.24 386.69 103.203C387.091 103.148 387.428 103.094 387.702 103.039L387.729 108.836C387.054 109.055 386.325 109.228 385.541 109.355C384.758 109.483 383.892 109.547 382.944 109.547C381.212 109.547 379.699 109.264 378.405 108.699C377.129 108.116 376.144 107.186 375.452 105.91C374.759 104.634 374.413 102.957 374.413 100.879V72.1133ZM406.89 79.4141V109H398.988V79.4141H406.89ZM398.496 71.7031C398.496 70.5547 398.897 69.6068 399.699 68.8594C400.501 68.112 401.577 67.7383 402.925 67.7383C404.256 67.7383 405.323 68.112 406.125 68.8594C406.945 69.6068 407.355 70.5547 407.355 71.7031C407.355 72.8516 406.945 73.7995 406.125 74.5469C405.323 75.2943 404.256 75.668 402.925 75.668C401.577 75.668 400.501 75.2943 399.699 74.5469C398.897 73.7995 398.496 72.8516 398.496 71.7031ZM432.341 103.395C433.307 103.395 434.164 103.212 434.911 102.848C435.658 102.465 436.242 101.936 436.661 101.262C437.099 100.569 437.326 99.7578 437.345 98.8281H444.755C444.737 100.906 444.181 102.757 443.087 104.379C441.993 105.983 440.526 107.25 438.685 108.18C436.843 109.091 434.783 109.547 432.505 109.547C430.208 109.547 428.203 109.164 426.489 108.398C424.794 107.633 423.381 106.576 422.251 105.227C421.121 103.859 420.273 102.273 419.708 100.469C419.143 98.6458 418.86 96.6953 418.86 94.6172V93.8242C418.86 91.7279 419.143 89.7773 419.708 87.9727C420.273 86.1497 421.121 84.5638 422.251 83.2148C423.381 81.8477 424.794 80.7812 426.489 80.0156C428.185 79.25 430.172 78.8672 432.45 78.8672C434.875 78.8672 436.998 79.332 438.821 80.2617C440.662 81.1914 442.102 82.5221 443.142 84.2539C444.199 85.9674 444.737 88 444.755 90.3516H437.345C437.326 89.3672 437.117 88.474 436.716 87.6719C436.333 86.8698 435.768 86.2318 435.02 85.7578C434.291 85.2656 433.389 85.0195 432.313 85.0195C431.165 85.0195 430.226 85.2656 429.497 85.7578C428.768 86.2318 428.203 86.888 427.802 87.7266C427.401 88.5469 427.118 89.4857 426.954 90.543C426.808 91.582 426.735 92.6758 426.735 93.8242V94.6172C426.735 95.7656 426.808 96.8685 426.954 97.9258C427.1 98.9831 427.373 99.9219 427.774 100.742C428.194 101.562 428.768 102.21 429.497 102.684C430.226 103.158 431.174 103.395 432.341 103.395ZM472.037 100.824C472.037 100.259 471.873 99.7487 471.545 99.293C471.217 98.8372 470.606 98.418 469.713 98.0352C468.838 97.6341 467.571 97.2695 465.912 96.9414C464.418 96.6133 463.023 96.2031 461.729 95.7109C460.453 95.2005 459.341 94.5898 458.393 93.8789C457.463 93.168 456.734 92.3294 456.205 91.3633C455.677 90.3789 455.412 89.2578 455.412 88C455.412 86.7604 455.677 85.5938 456.205 84.5C456.752 83.4062 457.527 82.4401 458.53 81.6016C459.55 80.7448 460.79 80.0794 462.248 79.6055C463.725 79.1133 465.384 78.8672 467.225 78.8672C469.795 78.8672 472.001 79.2773 473.842 80.0977C475.701 80.918 477.123 82.0482 478.108 83.4883C479.11 84.9102 479.612 86.5326 479.612 88.3555H471.737C471.737 87.5898 471.573 86.9062 471.244 86.3047C470.934 85.6849 470.442 85.2018 469.768 84.8555C469.112 84.4909 468.255 84.3086 467.198 84.3086C466.323 84.3086 465.566 84.4635 464.928 84.7734C464.29 85.0651 463.798 85.4661 463.451 85.9766C463.123 86.4688 462.959 87.0156 462.959 87.6172C462.959 88.0729 463.05 88.4831 463.233 88.8477C463.433 89.194 463.752 89.513 464.19 89.8047C464.627 90.0964 465.192 90.3698 465.885 90.625C466.596 90.862 467.471 91.0807 468.51 91.2812C470.643 91.7188 472.548 92.293 474.225 93.0039C475.902 93.6966 477.233 94.6445 478.217 95.8477C479.201 97.0326 479.694 98.5911 479.694 100.523C479.694 101.836 479.402 103.039 478.819 104.133C478.235 105.227 477.397 106.184 476.303 107.004C475.209 107.806 473.897 108.435 472.365 108.891C470.852 109.328 469.148 109.547 467.252 109.547C464.5 109.547 462.166 109.055 460.252 108.07C458.356 107.086 456.916 105.837 455.932 104.324C454.966 102.793 454.483 101.225 454.483 99.6211H461.948C461.984 100.697 462.257 101.562 462.768 102.219C463.296 102.875 463.962 103.349 464.764 103.641C465.584 103.932 466.468 104.078 467.416 104.078C468.437 104.078 469.285 103.941 469.959 103.668C470.634 103.376 471.144 102.993 471.49 102.52C471.855 102.027 472.037 101.462 472.037 100.824Z" fill="#B6EDEC"/>
<path d="M196.946 142.203V155H194.318V142.203H196.946ZM212.351 142.203V155H209.714L204.573 146.422V155H201.936V142.203H204.573L209.723 150.79V142.203H212.351ZM221.779 152.328L224.794 142.203H227.729L223.273 155H221.34L221.779 152.328ZM219.002 142.203L222.008 152.328L222.465 155H220.514L216.084 142.203H219.002ZM240.032 152.943V155H233.22V152.943H240.032ZM234.081 142.203V155H231.445V142.203H234.081ZM239.144 147.415V149.419H233.22V147.415H239.144ZM240.023 142.203V144.269H233.22V142.203H240.023ZM250.752 151.651C250.752 151.423 250.717 151.218 250.646 151.036C250.582 150.849 250.459 150.679 250.277 150.526C250.096 150.368 249.841 150.213 249.513 150.061C249.184 149.908 248.76 149.75 248.238 149.586C247.658 149.398 247.107 149.188 246.586 148.953C246.07 148.719 245.613 148.446 245.215 148.136C244.822 147.819 244.512 147.453 244.283 147.037C244.06 146.621 243.949 146.138 243.949 145.587C243.949 145.054 244.066 144.57 244.301 144.137C244.535 143.697 244.863 143.322 245.285 143.012C245.707 142.695 246.205 142.452 246.779 142.282C247.359 142.112 247.995 142.027 248.686 142.027C249.63 142.027 250.453 142.197 251.156 142.537C251.859 142.877 252.404 143.343 252.791 143.935C253.184 144.526 253.38 145.203 253.38 145.965H250.761C250.761 145.59 250.682 145.262 250.523 144.98C250.371 144.693 250.137 144.468 249.82 144.304C249.51 144.14 249.117 144.058 248.643 144.058C248.185 144.058 247.805 144.128 247.5 144.269C247.195 144.403 246.967 144.588 246.814 144.822C246.662 145.051 246.586 145.309 246.586 145.596C246.586 145.812 246.639 146.009 246.744 146.185C246.855 146.36 247.019 146.524 247.236 146.677C247.453 146.829 247.72 146.973 248.036 147.107C248.352 147.242 248.719 147.374 249.135 147.503C249.832 147.714 250.444 147.951 250.972 148.215C251.505 148.479 251.95 148.774 252.308 149.103C252.665 149.431 252.934 149.803 253.116 150.219C253.298 150.635 253.389 151.106 253.389 151.634C253.389 152.19 253.28 152.688 253.063 153.128C252.847 153.567 252.533 153.939 252.123 154.244C251.713 154.549 251.224 154.78 250.655 154.938C250.087 155.097 249.451 155.176 248.748 155.176C248.115 155.176 247.491 155.094 246.876 154.93C246.261 154.76 245.701 154.505 245.197 154.165C244.699 153.825 244.301 153.392 244.002 152.864C243.703 152.337 243.554 151.713 243.554 150.992H246.199C246.199 151.391 246.261 151.728 246.384 152.003C246.507 152.278 246.68 152.501 246.902 152.671C247.131 152.841 247.4 152.964 247.711 153.04C248.027 153.116 248.373 153.154 248.748 153.154C249.205 153.154 249.58 153.09 249.873 152.961C250.172 152.832 250.392 152.653 250.532 152.425C250.679 152.196 250.752 151.938 250.752 151.651ZM263.423 142.203V155H260.795V142.203H263.423ZM267.361 142.203V144.269H256.919V142.203H267.361ZM280.715 142.203V155H278.087V142.203H280.715ZM296.12 142.203V155H293.483L288.342 146.422V155H285.705V142.203H288.342L293.492 150.79V142.203H296.12ZM313.183 142.203V155H310.555V142.203H313.183ZM317.121 142.203V144.269H306.679V142.203H317.121ZM331.409 148.303V148.909C331.409 149.882 331.278 150.755 331.014 151.528C330.75 152.302 330.378 152.961 329.898 153.506C329.417 154.045 328.843 154.458 328.175 154.745C327.513 155.032 326.778 155.176 325.969 155.176C325.166 155.176 324.431 155.032 323.763 154.745C323.101 154.458 322.527 154.045 322.04 153.506C321.554 152.961 321.176 152.302 320.907 151.528C320.643 150.755 320.511 149.882 320.511 148.909V148.303C320.511 147.324 320.643 146.451 320.907 145.684C321.17 144.91 321.542 144.251 322.023 143.706C322.509 143.161 323.083 142.745 323.745 142.458C324.413 142.171 325.149 142.027 325.951 142.027C326.76 142.027 327.495 142.171 328.158 142.458C328.825 142.745 329.4 143.161 329.88 143.706C330.366 144.251 330.741 144.91 331.005 145.684C331.275 146.451 331.409 147.324 331.409 148.303ZM328.746 148.909V148.285C328.746 147.605 328.685 147.008 328.562 146.492C328.439 145.977 328.257 145.543 328.017 145.191C327.777 144.84 327.484 144.576 327.138 144.4C326.792 144.219 326.397 144.128 325.951 144.128C325.506 144.128 325.111 144.219 324.765 144.4C324.425 144.576 324.135 144.84 323.895 145.191C323.66 145.543 323.482 145.977 323.359 146.492C323.236 147.008 323.174 147.605 323.174 148.285V148.909C323.174 149.583 323.236 150.181 323.359 150.702C323.482 151.218 323.663 151.654 323.904 152.012C324.144 152.363 324.437 152.63 324.783 152.812C325.128 152.993 325.524 153.084 325.969 153.084C326.414 153.084 326.81 152.993 327.156 152.812C327.501 152.63 327.791 152.363 328.026 152.012C328.26 151.654 328.439 151.218 328.562 150.702C328.685 150.181 328.746 149.583 328.746 148.909ZM337.032 142.203H339.264L342.552 151.599L345.839 142.203H348.071L343.448 155H341.655L337.032 142.203ZM335.828 142.203H338.052L338.456 151.361V155H335.828V142.203ZM347.052 142.203H349.284V155H346.647V151.361L347.052 142.203ZM364.627 148.303V148.909C364.627 149.882 364.495 150.755 364.232 151.528C363.968 152.302 363.596 152.961 363.115 153.506C362.635 154.045 362.061 154.458 361.393 154.745C360.731 155.032 359.995 155.176 359.187 155.176C358.384 155.176 357.649 155.032 356.981 154.745C356.319 154.458 355.744 154.045 355.258 153.506C354.772 152.961 354.394 152.302 354.124 151.528C353.861 150.755 353.729 149.882 353.729 148.909V148.303C353.729 147.324 353.861 146.451 354.124 145.684C354.388 144.91 354.76 144.251 355.24 143.706C355.727 143.161 356.301 142.745 356.963 142.458C357.631 142.171 358.366 142.027 359.169 142.027C359.978 142.027 360.713 142.171 361.375 142.458C362.043 142.745 362.617 143.161 363.098 143.706C363.584 144.251 363.959 144.91 364.223 145.684C364.492 146.451 364.627 147.324 364.627 148.303ZM361.964 148.909V148.285C361.964 147.605 361.903 147.008 361.78 146.492C361.656 145.977 361.475 145.543 361.235 145.191C360.994 144.84 360.701 144.576 360.356 144.4C360.01 144.219 359.614 144.128 359.169 144.128C358.724 144.128 358.328 144.219 357.983 144.4C357.643 144.576 357.353 144.84 357.113 145.191C356.878 145.543 356.699 145.977 356.576 146.492C356.453 147.008 356.392 147.605 356.392 148.285V148.909C356.392 149.583 356.453 150.181 356.576 150.702C356.699 151.218 356.881 151.654 357.121 152.012C357.362 152.363 357.655 152.63 358 152.812C358.346 152.993 358.741 153.084 359.187 153.084C359.632 153.084 360.028 152.993 360.373 152.812C360.719 152.63 361.009 152.363 361.243 152.012C361.478 151.654 361.656 151.218 361.78 150.702C361.903 150.181 361.964 149.583 361.964 148.909ZM369.046 142.203H373.818C374.797 142.203 375.637 142.35 376.341 142.643C377.05 142.936 377.594 143.369 377.975 143.943C378.356 144.518 378.547 145.224 378.547 146.062C378.547 146.747 378.429 147.336 378.195 147.828C377.967 148.314 377.641 148.722 377.219 149.05C376.803 149.372 376.314 149.63 375.752 149.823L374.917 150.263H370.768L370.751 148.206H373.836C374.299 148.206 374.682 148.124 374.987 147.96C375.292 147.796 375.52 147.567 375.673 147.274C375.831 146.981 375.91 146.642 375.91 146.255C375.91 145.845 375.834 145.49 375.681 145.191C375.529 144.893 375.298 144.664 374.987 144.506C374.676 144.348 374.287 144.269 373.818 144.269H371.682V155H369.046V142.203ZM376.2 155L373.282 149.296L376.068 149.278L379.021 154.877V155H376.2ZM383.097 142.203H387.869C388.848 142.203 389.689 142.35 390.392 142.643C391.101 142.936 391.646 143.369 392.027 143.943C392.407 144.518 392.598 145.224 392.598 146.062C392.598 146.747 392.481 147.336 392.246 147.828C392.018 148.314 391.693 148.722 391.271 149.05C390.855 149.372 390.365 149.63 389.803 149.823L388.968 150.263H384.82L384.802 148.206H387.887C388.35 148.206 388.734 148.124 389.038 147.96C389.343 147.796 389.571 147.567 389.724 147.274C389.882 146.981 389.961 146.642 389.961 146.255C389.961 145.845 389.885 145.49 389.733 145.191C389.58 144.893 389.349 144.664 389.038 144.506C388.728 144.348 388.338 144.269 387.869 144.269H385.734V155H383.097V142.203ZM390.251 155L387.333 149.296L390.119 149.278L393.072 154.877V155H390.251ZM407.66 148.303V148.909C407.66 149.882 407.528 150.755 407.264 151.528C407.001 152.302 406.629 152.961 406.148 153.506C405.668 154.045 405.093 154.458 404.425 154.745C403.763 155.032 403.028 155.176 402.219 155.176C401.417 155.176 400.681 155.032 400.013 154.745C399.351 154.458 398.777 154.045 398.291 153.506C397.804 152.961 397.426 152.302 397.157 151.528C396.893 150.755 396.761 149.882 396.761 148.909V148.303C396.761 147.324 396.893 146.451 397.157 145.684C397.421 144.91 397.793 144.251 398.273 143.706C398.759 143.161 399.334 142.745 399.996 142.458C400.664 142.171 401.399 142.027 402.202 142.027C403.01 142.027 403.746 142.171 404.408 142.458C405.076 142.745 405.65 143.161 406.131 143.706C406.617 144.251 406.992 144.91 407.256 145.684C407.525 146.451 407.66 147.324 407.66 148.303ZM404.997 148.909V148.285C404.997 147.605 404.935 147.008 404.812 146.492C404.689 145.977 404.508 145.543 404.267 145.191C404.027 144.84 403.734 144.576 403.388 144.4C403.043 144.219 402.647 144.128 402.202 144.128C401.757 144.128 401.361 144.219 401.015 144.4C400.675 144.576 400.385 144.84 400.145 145.191C399.911 145.543 399.732 145.977 399.609 146.492C399.486 147.008 399.424 147.605 399.424 148.285V148.909C399.424 149.583 399.486 150.181 399.609 150.702C399.732 151.218 399.914 151.654 400.154 152.012C400.394 152.363 400.687 152.63 401.033 152.812C401.379 152.993 401.774 153.084 402.219 153.084C402.665 153.084 403.06 152.993 403.406 152.812C403.752 152.63 404.042 152.363 404.276 152.012C404.51 151.654 404.689 151.218 404.812 150.702C404.935 150.181 404.997 149.583 404.997 148.909ZM415.163 152.97L417.712 142.203H419.136L419.461 143.996L416.745 155H415.216L415.163 152.97ZM413.854 142.203L415.963 152.97L415.787 155H414.082L411.243 142.203H413.854ZM421.702 152.926L423.785 142.203H426.396L423.566 155H421.861L421.702 152.926ZM419.936 142.203L422.502 153.014L422.432 155H420.902L418.169 143.987L418.521 142.203H419.936Z" fill="#B6EDEC"/>
</svg>
