<svg width="566" height="227" viewBox="0 0 566 227" fill="none" xmlns="http://www.w3.org/2000/svg">
<ellipse cx="9.72182" cy="9.85337" rx="9.72182" ry="9.85337" transform="matrix(-0.707107 -0.707107 -0.707107 0.707107 126.979 113.044)" fill="#18526D"/>
<ellipse cx="8.04145" cy="8.21115" rx="8.04145" ry="8.21115" transform="matrix(0.707107 0.707107 0.707107 -0.707107 117.375 97.8004)" fill="#18526D"/>
<ellipse cx="7.14495" cy="7.29573" rx="7.14495" ry="7.29573" transform="matrix(0.707107 0.707107 0.707107 -0.707107 132.936 83.2338)" fill="#18526D"/>
<ellipse cx="5.62226" cy="5.7409" rx="5.62226" ry="5.7409" transform="matrix(0.707107 0.707107 0.707107 -0.707107 148.57 69.9187)" fill="#18526D"/>
<ellipse cx="3.43958" cy="3.51216" rx="3.43958" ry="3.51216" transform="matrix(0.707107 0.707107 0.707107 -0.707107 162.337 59.1336)" fill="#18526D"/>
<ellipse cx="8.05324" cy="8.19912" rx="8.05324" ry="8.19912" transform="matrix(-0.707107 0.707107 0.707107 0.707107 128.468 117.519)" fill="#18526D"/>
<ellipse cx="7.15543" cy="7.28505" rx="7.15543" ry="7.28505" transform="matrix(-0.707107 0.707107 0.707107 0.707107 143.011 133.058)" fill="#18526D"/>
<ellipse cx="5.6305" cy="5.7325" rx="5.6305" ry="5.7325" transform="matrix(-0.707107 0.707107 0.707107 0.707107 156.304 148.673)" fill="#18526D"/>
<ellipse cx="3.44462" cy="3.50702" rx="3.44462" ry="3.50702" transform="matrix(-0.707107 0.707107 0.707107 0.707107 167.068 162.423)" fill="#18526D"/>
<ellipse cx="8.04145" cy="8.21115" rx="8.04145" ry="8.21115" transform="matrix(-0.707107 -0.707107 -0.707107 0.707107 108.899 128.474)" fill="#18526D"/>
<ellipse cx="7.14495" cy="7.29573" rx="7.14495" ry="7.29573" transform="matrix(-0.707107 -0.707107 -0.707107 0.707107 93.3384 143.04)" fill="#18526D"/>
<ellipse cx="5.62226" cy="5.7409" rx="5.62226" ry="5.7409" transform="matrix(-0.707107 -0.707107 -0.707107 0.707107 77.704 156.355)" fill="#18526D"/>
<ellipse cx="3.43958" cy="3.51216" rx="3.43958" ry="3.51216" transform="matrix(-0.707107 -0.707107 -0.707107 0.707107 63.9374 167.141)" fill="#18526D"/>
<ellipse cx="8.05324" cy="8.19912" rx="8.05324" ry="8.19912" transform="matrix(0.707107 -0.707107 -0.707107 -0.707107 97.6408 108.921)" fill="#18526D"/>
<ellipse cx="7.15543" cy="7.28505" rx="7.15543" ry="7.28505" transform="matrix(0.707107 -0.707107 -0.707107 -0.707107 83.097 93.3822)" fill="#18526D"/>
<ellipse cx="5.6305" cy="5.7325" rx="5.6305" ry="5.7325" transform="matrix(0.707107 -0.707107 -0.707107 -0.707107 69.8047 77.7675)" fill="#18526D"/>
<ellipse cx="3.44462" cy="3.50702" rx="3.44462" ry="3.50702" transform="matrix(0.707107 -0.707107 -0.707107 -0.707107 59.0399 64.0166)" fill="#18526D"/>
<ellipse cx="7.15543" cy="7.28505" rx="7.15543" ry="7.28505" transform="matrix(0.707107 -0.707107 -0.707107 -0.707107 113.099 95.8468)" fill="#18526D"/>
<ellipse cx="5.6305" cy="5.7325" rx="5.6305" ry="5.7325" transform="matrix(0.707107 -0.707107 -0.707107 -0.707107 97.8169 81.5596)" fill="#18526D"/>
<ellipse cx="3.44462" cy="3.50702" rx="3.44462" ry="3.50702" transform="matrix(0.707107 -0.707107 -0.707107 -0.707107 85.8304 68.6991)" fill="#18526D"/>
<ellipse cx="2.62351" cy="2.67103" rx="2.62351" ry="2.67103" transform="matrix(0.707107 -0.707107 -0.707107 -0.707107 74.8742 58.7382)" fill="#18526D"/>
<ellipse cx="7.14495" cy="7.29573" rx="7.14495" ry="7.29573" transform="matrix(-0.707107 -0.707107 -0.707107 0.707107 94.9852 113.565)" fill="#18526D"/>
<ellipse cx="5.62225" cy="5.7409" rx="5.62225" ry="5.7409" transform="matrix(-0.707107 -0.707107 -0.707107 0.707107 80.6755 128.868)" fill="#18526D"/>
<ellipse cx="3.43958" cy="3.51216" rx="3.43958" ry="3.51216" transform="matrix(-0.707107 -0.707107 -0.707107 0.707107 67.7974 140.874)" fill="#18526D"/>
<ellipse cx="2.61967" cy="2.67495" rx="2.61967" ry="2.67495" transform="matrix(-0.707107 -0.707107 -0.707107 0.707107 57.8204 151.844)" fill="#18526D"/>
<ellipse cx="112.975" cy="85.4701" rx="7.14495" ry="7.29573" transform="rotate(-135 112.975 85.4701)" fill="#18526D"/>
<ellipse cx="128.256" cy="73.3367" rx="5.62225" ry="5.7409" transform="rotate(-135 128.256 73.3367)" fill="#18526D"/>
<ellipse cx="140.229" cy="63.5778" rx="3.43958" ry="3.51216" transform="rotate(-135 140.229 63.5778)" fill="#18526D"/>
<ellipse cx="151.187" cy="54.7727" rx="2.61967" ry="2.67495" transform="rotate(-135 151.187 54.7727)" fill="#18526D"/>
<ellipse cx="7.14495" cy="7.29573" rx="7.14495" ry="7.29573" transform="matrix(0.707107 0.707107 0.707107 -0.707107 130.654 113.466)" fill="#18526D"/>
<ellipse cx="5.62225" cy="5.7409" rx="5.62225" ry="5.7409" transform="matrix(0.707107 0.707107 0.707107 -0.707107 144.963 98.1625)" fill="#18526D"/>
<ellipse cx="3.43958" cy="3.51216" rx="3.43958" ry="3.51216" transform="matrix(0.707107 0.707107 0.707107 -0.707107 157.841 86.1572)" fill="#18526D"/>
<ellipse cx="2.61967" cy="2.67495" rx="2.61967" ry="2.67495" transform="matrix(0.707107 0.707107 0.707107 -0.707107 167.818 75.1864)" fill="#18526D"/>
<ellipse cx="113.161" cy="141.063" rx="7.14495" ry="7.29573" transform="rotate(45 113.161 141.063)" fill="#18526D"/>
<ellipse cx="97.8802" cy="153.196" rx="5.62225" ry="5.7409" transform="rotate(45 97.8802 153.196)" fill="#18526D"/>
<ellipse cx="85.9075" cy="162.955" rx="3.43958" ry="3.51216" transform="rotate(45 85.9075 162.955)" fill="#18526D"/>
<ellipse cx="74.9489" cy="171.76" rx="2.61967" ry="2.67495" transform="rotate(45 74.9489 171.76)" fill="#18526D"/>
<ellipse cx="84.9117" cy="113.732" rx="7.15542" ry="7.28505" transform="rotate(135 84.9117 113.732)" fill="#18526D"/>
<ellipse cx="72.8007" cy="98.469" rx="5.6305" ry="5.73249" transform="rotate(135 72.8007 98.469)" fill="#18526D"/>
<ellipse cx="63.0592" cy="86.5105" rx="3.44462" ry="3.50702" transform="rotate(135 63.0592 86.5105)" fill="#18526D"/>
<ellipse cx="54.2702" cy="75.5648" rx="2.62351" ry="2.67103" transform="rotate(135 54.2702 75.5648)" fill="#18526D"/>
<ellipse cx="140.671" cy="113.299" rx="7.15542" ry="7.28505" transform="rotate(-45 140.671 113.299)" fill="#18526D"/>
<ellipse cx="152.782" cy="128.562" rx="5.6305" ry="5.73249" transform="rotate(-45 152.782 128.562)" fill="#18526D"/>
<ellipse cx="162.523" cy="140.52" rx="3.44462" ry="3.50702" transform="rotate(-45 162.523 140.52)" fill="#18526D"/>
<ellipse cx="171.312" cy="151.466" rx="2.62351" ry="2.67103" transform="rotate(-45 171.312 151.466)" fill="#18526D"/>
<ellipse cx="7.15543" cy="7.28505" rx="7.15543" ry="7.28505" transform="matrix(-0.707107 0.707107 0.707107 0.707107 112.483 131.184)" fill="#18526D"/>
<ellipse cx="5.6305" cy="5.7325" rx="5.6305" ry="5.7325" transform="matrix(-0.707107 0.707107 0.707107 0.707107 127.766 145.471)" fill="#18526D"/>
<ellipse cx="3.44462" cy="3.50702" rx="3.44462" ry="3.50702" transform="matrix(-0.707107 0.707107 0.707107 0.707107 139.752 158.332)" fill="#18526D"/>
<ellipse cx="2.62351" cy="2.67103" rx="2.62351" ry="2.67103" transform="matrix(-0.707107 0.707107 0.707107 0.707107 150.708 168.293)" fill="#18526D"/>
<path d="M219.188 104.094V110H198.023V104.094H219.188ZM200.32 70.1875V110H192.801V70.1875H200.32ZM216.426 86.6211V92.3906H198.023V86.6211H216.426ZM219.105 70.1875V76.1211H198.023V70.1875H219.105ZM251.966 99.6641C251.966 98.8984 251.848 98.2148 251.611 97.6133C251.392 96.9935 250.982 96.4375 250.38 95.9453C249.797 95.4349 248.967 94.9427 247.892 94.4688C246.835 93.9766 245.467 93.4661 243.79 92.9375C241.931 92.3542 240.199 91.6979 238.595 90.9688C236.991 90.2396 235.578 89.3919 234.357 88.4258C233.154 87.4596 232.215 86.3477 231.54 85.0898C230.866 83.8138 230.529 82.3372 230.529 80.6602C230.529 79.0195 230.875 77.5247 231.568 76.1758C232.279 74.8268 233.281 73.6693 234.575 72.7031C235.87 71.7188 237.392 70.9622 239.142 70.4336C240.91 69.9049 242.861 69.6406 244.993 69.6406C247.947 69.6406 250.499 70.1784 252.65 71.2539C254.819 72.3294 256.496 73.7878 257.681 75.6289C258.866 77.4701 259.458 79.5391 259.458 81.8359H251.966C251.966 80.5964 251.702 79.5026 251.173 78.5547C250.663 77.6068 249.879 76.8594 248.822 76.3125C247.783 75.7656 246.47 75.4922 244.884 75.4922C243.353 75.4922 242.077 75.7201 241.056 76.1758C240.053 76.6315 239.297 77.2513 238.786 78.0352C238.294 78.819 238.048 79.694 238.048 80.6602C238.048 81.3893 238.221 82.0456 238.568 82.6289C238.914 83.194 239.434 83.7318 240.126 84.2422C240.819 84.7344 241.676 85.1992 242.697 85.6367C243.736 86.056 244.939 86.4753 246.306 86.8945C248.493 87.5508 250.408 88.2799 252.048 89.082C253.707 89.8841 255.083 90.7956 256.177 91.8164C257.289 92.8372 258.118 93.9857 258.665 95.2617C259.23 96.5378 259.513 97.987 259.513 99.6094C259.513 101.323 259.176 102.854 258.501 104.203C257.827 105.552 256.861 106.701 255.603 107.648C254.345 108.596 252.832 109.316 251.064 109.809C249.314 110.301 247.354 110.547 245.185 110.547C243.253 110.547 241.338 110.292 239.443 109.781C237.565 109.253 235.861 108.469 234.329 107.43C232.798 106.372 231.577 105.042 230.665 103.438C229.754 101.815 229.298 99.9193 229.298 97.75H236.845C236.845 99.0078 237.046 100.083 237.447 100.977C237.866 101.852 238.449 102.572 239.197 103.137C239.962 103.684 240.855 104.085 241.876 104.34C242.897 104.595 244 104.723 245.185 104.723C246.716 104.723 247.974 104.513 248.958 104.094C249.961 103.656 250.708 103.055 251.2 102.289C251.711 101.523 251.966 100.648 251.966 99.6641ZM303.092 89.4102V104.914C302.509 105.661 301.588 106.473 300.331 107.348C299.091 108.223 297.469 108.979 295.463 109.617C293.458 110.237 290.997 110.547 288.081 110.547C285.547 110.547 283.232 110.128 281.135 109.289C279.039 108.432 277.234 107.184 275.721 105.543C274.208 103.902 273.042 101.897 272.221 99.5273C271.401 97.1576 270.991 94.4505 270.991 91.4062V88.7812C270.991 85.737 271.374 83.0299 272.139 80.6602C272.923 78.2904 274.035 76.2852 275.475 74.6445C276.933 73.0039 278.674 71.7552 280.698 70.8984C282.739 70.0417 285.018 69.6133 287.534 69.6133C290.906 69.6133 293.677 70.1693 295.846 71.2812C298.034 72.3932 299.711 73.9245 300.878 75.875C302.044 77.8073 302.773 80.0312 303.065 82.5469H295.737C295.536 81.1615 295.135 79.9492 294.534 78.9102C293.932 77.8529 293.075 77.0326 291.963 76.4492C290.87 75.8477 289.448 75.5469 287.698 75.5469C286.221 75.5469 284.918 75.8385 283.788 76.4219C282.657 77.0052 281.71 77.8529 280.944 78.9648C280.178 80.0768 279.595 81.4531 279.194 83.0938C278.811 84.7344 278.62 86.612 278.62 88.7266V91.4062C278.62 93.5391 278.838 95.4349 279.276 97.0938C279.713 98.7344 280.342 100.12 281.163 101.25C282.001 102.362 283.031 103.21 284.253 103.793C285.492 104.358 286.896 104.641 288.463 104.641C289.885 104.641 291.061 104.522 291.991 104.285C292.939 104.03 293.695 103.729 294.26 103.383C294.825 103.036 295.263 102.699 295.573 102.371V94.9062H287.67V89.4102H303.092ZM324.031 68V110H316.785V68H324.031ZM346.31 106.719L354.239 80.4141H361.978L350.11 114.484C349.837 115.214 349.482 116.007 349.044 116.863C348.625 117.72 348.06 118.531 347.349 119.297C346.638 120.081 345.745 120.719 344.669 121.211C343.612 121.703 342.327 121.949 340.814 121.949C340.157 121.949 339.574 121.904 339.064 121.812C338.553 121.721 338.015 121.603 337.45 121.457V116.043C337.633 116.061 337.842 116.07 338.079 116.07C338.334 116.089 338.553 116.098 338.735 116.098C339.793 116.098 340.668 115.97 341.36 115.715C342.053 115.478 342.609 115.086 343.028 114.539C343.466 114.01 343.831 113.318 344.122 112.461L346.31 106.719ZM342.4 80.4141L349.099 102.207L350.275 109.836L345.298 110.738L334.607 80.4141H342.4ZM386.198 80.4141V85.6094H369.245V80.4141H386.198ZM373.784 73.1406H381.03V101.469C381.03 102.344 381.148 103.018 381.385 103.492C381.622 103.966 381.978 104.285 382.452 104.449C382.926 104.613 383.491 104.695 384.147 104.695C384.621 104.695 385.058 104.668 385.459 104.613C385.86 104.559 386.198 104.504 386.471 104.449L386.498 109.863C385.897 110.064 385.213 110.228 384.448 110.355C383.7 110.483 382.853 110.547 381.905 110.547C380.282 110.547 378.86 110.273 377.639 109.727C376.418 109.161 375.47 108.259 374.795 107.02C374.121 105.762 373.784 104.103 373.784 102.043V73.1406ZM405.386 80.4141V110H398.14V80.4141H405.386ZM397.648 72.6758C397.648 71.6003 398.013 70.707 398.742 69.9961C399.489 69.2852 400.492 68.9297 401.75 68.9297C403.007 68.9297 404.001 69.2852 404.73 69.9961C405.478 70.707 405.851 71.6003 405.851 72.6758C405.851 73.7331 405.478 74.6172 404.73 75.3281C404.001 76.0391 403.007 76.3945 401.75 76.3945C400.492 76.3945 399.489 76.0391 398.742 75.3281C398.013 74.6172 397.648 73.7331 397.648 72.6758ZM431.138 104.859C432.158 104.859 433.07 104.659 433.872 104.258C434.674 103.857 435.312 103.292 435.786 102.562C436.278 101.833 436.543 100.986 436.579 100.02H443.388C443.351 102.025 442.786 103.82 441.692 105.406C440.599 106.992 439.14 108.25 437.317 109.18C435.513 110.091 433.489 110.547 431.247 110.547C428.968 110.547 426.981 110.164 425.286 109.398C423.591 108.633 422.178 107.566 421.048 106.199C419.936 104.832 419.097 103.246 418.532 101.441C417.985 99.6367 417.712 97.7044 417.712 95.6445V94.7695C417.712 92.7096 417.985 90.7773 418.532 88.9727C419.097 87.168 419.936 85.582 421.048 84.2148C422.178 82.8477 423.591 81.7812 425.286 81.0156C426.981 80.25 428.959 79.8672 431.22 79.8672C433.608 79.8672 435.704 80.332 437.509 81.2617C439.332 82.1914 440.754 83.5039 441.774 85.1992C442.813 86.8945 443.351 88.8906 443.388 91.1875H436.579C436.543 90.1302 436.306 89.1823 435.868 88.3438C435.431 87.5052 434.811 86.8307 434.009 86.3203C433.207 85.8099 432.231 85.5547 431.083 85.5547C429.862 85.5547 428.841 85.8099 428.02 86.3203C427.218 86.8307 426.589 87.5326 426.134 88.4258C425.696 89.3008 425.386 90.2852 425.204 91.3789C425.04 92.4544 424.958 93.5846 424.958 94.7695V95.6445C424.958 96.8477 425.04 97.9961 425.204 99.0898C425.386 100.184 425.696 101.168 426.134 102.043C426.589 102.9 427.218 103.583 428.02 104.094C428.841 104.604 429.88 104.859 431.138 104.859ZM471.19 101.906C471.19 101.286 471.026 100.73 470.698 100.238C470.369 99.7461 469.75 99.2995 468.838 98.8984C467.945 98.4792 466.632 98.0872 464.901 97.7227C463.369 97.3945 461.957 96.9844 460.662 96.4922C459.368 96 458.256 95.4076 457.326 94.7148C456.397 94.0039 455.668 93.1745 455.139 92.2266C454.628 91.2604 454.373 90.1484 454.373 88.8906C454.373 87.6693 454.638 86.5208 455.166 85.4453C455.695 84.3516 456.461 83.3945 457.463 82.5742C458.466 81.7357 459.687 81.0794 461.127 80.6055C462.567 80.1133 464.19 79.8672 465.994 79.8672C468.51 79.8672 470.67 80.2773 472.475 81.0977C474.298 81.918 475.692 83.0482 476.658 84.4883C477.625 85.9102 478.108 87.5143 478.108 89.3008H470.889C470.889 88.5169 470.707 87.806 470.342 87.168C469.996 86.5299 469.458 86.0195 468.729 85.6367C468 85.2357 467.079 85.0352 465.967 85.0352C464.964 85.0352 464.117 85.1992 463.424 85.5273C462.75 85.8555 462.239 86.2839 461.893 86.8125C461.546 87.3411 461.373 87.9245 461.373 88.5625C461.373 89.0365 461.464 89.4648 461.647 89.8477C461.847 90.2122 462.166 90.5495 462.604 90.8594C463.041 91.1693 463.634 91.4518 464.381 91.707C465.147 91.9622 466.086 92.2083 467.198 92.4453C469.403 92.8828 471.326 93.4661 472.967 94.1953C474.626 94.9062 475.92 95.8542 476.85 97.0391C477.78 98.224 478.244 99.737 478.244 101.578C478.244 102.891 477.962 104.094 477.397 105.188C476.832 106.263 476.011 107.202 474.936 108.004C473.86 108.806 472.575 109.435 471.08 109.891C469.586 110.328 467.899 110.547 466.022 110.547C463.306 110.547 461.009 110.064 459.131 109.098C457.253 108.113 455.832 106.874 454.865 105.379C453.899 103.866 453.416 102.298 453.416 100.676H460.334C460.389 101.824 460.699 102.745 461.264 103.438C461.829 104.13 462.54 104.632 463.397 104.941C464.272 105.233 465.192 105.379 466.158 105.379C467.252 105.379 468.173 105.233 468.92 104.941C469.668 104.632 470.233 104.221 470.615 103.711C470.998 103.182 471.19 102.581 471.19 101.906Z" fill="#18526D"/>
<path d="M196.946 143.203V156H194.318V143.203H196.946ZM212.351 143.203V156H209.714L204.573 147.422V156H201.936V143.203H204.573L209.723 151.79V143.203H212.351ZM221.779 153.328L224.794 143.203H227.729L223.273 156H221.34L221.779 153.328ZM219.002 143.203L222.008 153.328L222.465 156H220.514L216.084 143.203H219.002ZM240.032 153.943V156H233.22V153.943H240.032ZM234.081 143.203V156H231.445V143.203H234.081ZM239.144 148.415V150.419H233.22V148.415H239.144ZM240.023 143.203V145.269H233.22V143.203H240.023ZM250.752 152.651C250.752 152.423 250.717 152.218 250.646 152.036C250.582 151.849 250.459 151.679 250.277 151.526C250.096 151.368 249.841 151.213 249.513 151.061C249.184 150.908 248.76 150.75 248.238 150.586C247.658 150.398 247.107 150.188 246.586 149.953C246.07 149.719 245.613 149.446 245.215 149.136C244.822 148.819 244.512 148.453 244.283 148.037C244.06 147.621 243.949 147.138 243.949 146.587C243.949 146.054 244.066 145.57 244.301 145.137C244.535 144.697 244.863 144.322 245.285 144.012C245.707 143.695 246.205 143.452 246.779 143.282C247.359 143.112 247.995 143.027 248.686 143.027C249.63 143.027 250.453 143.197 251.156 143.537C251.859 143.877 252.404 144.343 252.791 144.935C253.184 145.526 253.38 146.203 253.38 146.965H250.761C250.761 146.59 250.682 146.262 250.523 145.98C250.371 145.693 250.137 145.468 249.82 145.304C249.51 145.14 249.117 145.058 248.643 145.058C248.185 145.058 247.805 145.128 247.5 145.269C247.195 145.403 246.967 145.588 246.814 145.822C246.662 146.051 246.586 146.309 246.586 146.596C246.586 146.812 246.639 147.009 246.744 147.185C246.855 147.36 247.019 147.524 247.236 147.677C247.453 147.829 247.72 147.973 248.036 148.107C248.352 148.242 248.719 148.374 249.135 148.503C249.832 148.714 250.444 148.951 250.972 149.215C251.505 149.479 251.95 149.774 252.308 150.103C252.665 150.431 252.934 150.803 253.116 151.219C253.298 151.635 253.389 152.106 253.389 152.634C253.389 153.19 253.28 153.688 253.063 154.128C252.847 154.567 252.533 154.939 252.123 155.244C251.713 155.549 251.224 155.78 250.655 155.938C250.087 156.097 249.451 156.176 248.748 156.176C248.115 156.176 247.491 156.094 246.876 155.93C246.261 155.76 245.701 155.505 245.197 155.165C244.699 154.825 244.301 154.392 244.002 153.864C243.703 153.337 243.554 152.713 243.554 151.992H246.199C246.199 152.391 246.261 152.728 246.384 153.003C246.507 153.278 246.68 153.501 246.902 153.671C247.131 153.841 247.4 153.964 247.711 154.04C248.027 154.116 248.373 154.154 248.748 154.154C249.205 154.154 249.58 154.09 249.873 153.961C250.172 153.832 250.392 153.653 250.532 153.425C250.679 153.196 250.752 152.938 250.752 152.651ZM263.423 143.203V156H260.795V143.203H263.423ZM267.361 143.203V145.269H256.919V143.203H267.361ZM280.715 143.203V156H278.087V143.203H280.715ZM296.12 143.203V156H293.483L288.342 147.422V156H285.705V143.203H288.342L293.492 151.79V143.203H296.12ZM313.183 143.203V156H310.555V143.203H313.183ZM317.121 143.203V145.269H306.679V143.203H317.121ZM331.409 149.303V149.909C331.409 150.882 331.278 151.755 331.014 152.528C330.75 153.302 330.378 153.961 329.898 154.506C329.417 155.045 328.843 155.458 328.175 155.745C327.513 156.032 326.778 156.176 325.969 156.176C325.166 156.176 324.431 156.032 323.763 155.745C323.101 155.458 322.527 155.045 322.04 154.506C321.554 153.961 321.176 153.302 320.907 152.528C320.643 151.755 320.511 150.882 320.511 149.909V149.303C320.511 148.324 320.643 147.451 320.907 146.684C321.17 145.91 321.542 145.251 322.023 144.706C322.509 144.161 323.083 143.745 323.745 143.458C324.413 143.171 325.149 143.027 325.951 143.027C326.76 143.027 327.495 143.171 328.158 143.458C328.825 143.745 329.4 144.161 329.88 144.706C330.366 145.251 330.741 145.91 331.005 146.684C331.275 147.451 331.409 148.324 331.409 149.303ZM328.746 149.909V149.285C328.746 148.605 328.685 148.008 328.562 147.492C328.439 146.977 328.257 146.543 328.017 146.191C327.777 145.84 327.484 145.576 327.138 145.4C326.792 145.219 326.397 145.128 325.951 145.128C325.506 145.128 325.111 145.219 324.765 145.4C324.425 145.576 324.135 145.84 323.895 146.191C323.66 146.543 323.482 146.977 323.359 147.492C323.236 148.008 323.174 148.605 323.174 149.285V149.909C323.174 150.583 323.236 151.181 323.359 151.702C323.482 152.218 323.663 152.654 323.904 153.012C324.144 153.363 324.437 153.63 324.783 153.812C325.128 153.993 325.524 154.084 325.969 154.084C326.414 154.084 326.81 153.993 327.156 153.812C327.501 153.63 327.791 153.363 328.026 153.012C328.26 152.654 328.439 152.218 328.562 151.702C328.685 151.181 328.746 150.583 328.746 149.909ZM337.032 143.203H339.264L342.552 152.599L345.839 143.203H348.071L343.448 156H341.655L337.032 143.203ZM335.828 143.203H338.052L338.456 152.361V156H335.828V143.203ZM347.052 143.203H349.284V156H346.647V152.361L347.052 143.203ZM364.627 149.303V149.909C364.627 150.882 364.495 151.755 364.232 152.528C363.968 153.302 363.596 153.961 363.115 154.506C362.635 155.045 362.061 155.458 361.393 155.745C360.731 156.032 359.995 156.176 359.187 156.176C358.384 156.176 357.649 156.032 356.981 155.745C356.319 155.458 355.744 155.045 355.258 154.506C354.772 153.961 354.394 153.302 354.124 152.528C353.861 151.755 353.729 150.882 353.729 149.909V149.303C353.729 148.324 353.861 147.451 354.124 146.684C354.388 145.91 354.76 145.251 355.24 144.706C355.727 144.161 356.301 143.745 356.963 143.458C357.631 143.171 358.366 143.027 359.169 143.027C359.978 143.027 360.713 143.171 361.375 143.458C362.043 143.745 362.617 144.161 363.098 144.706C363.584 145.251 363.959 145.91 364.223 146.684C364.492 147.451 364.627 148.324 364.627 149.303ZM361.964 149.909V149.285C361.964 148.605 361.903 148.008 361.78 147.492C361.656 146.977 361.475 146.543 361.235 146.191C360.994 145.84 360.701 145.576 360.356 145.4C360.01 145.219 359.614 145.128 359.169 145.128C358.724 145.128 358.328 145.219 357.983 145.4C357.643 145.576 357.353 145.84 357.113 146.191C356.878 146.543 356.699 146.977 356.576 147.492C356.453 148.008 356.392 148.605 356.392 149.285V149.909C356.392 150.583 356.453 151.181 356.576 151.702C356.699 152.218 356.881 152.654 357.121 153.012C357.362 153.363 357.655 153.63 358 153.812C358.346 153.993 358.741 154.084 359.187 154.084C359.632 154.084 360.028 153.993 360.373 153.812C360.719 153.63 361.009 153.363 361.243 153.012C361.478 152.654 361.656 152.218 361.78 151.702C361.903 151.181 361.964 150.583 361.964 149.909ZM369.046 143.203H373.818C374.797 143.203 375.637 143.35 376.341 143.643C377.05 143.936 377.594 144.369 377.975 144.943C378.356 145.518 378.547 146.224 378.547 147.062C378.547 147.747 378.429 148.336 378.195 148.828C377.967 149.314 377.641 149.722 377.219 150.05C376.803 150.372 376.314 150.63 375.752 150.823L374.917 151.263H370.768L370.751 149.206H373.836C374.299 149.206 374.682 149.124 374.987 148.96C375.292 148.796 375.52 148.567 375.673 148.274C375.831 147.981 375.91 147.642 375.91 147.255C375.91 146.845 375.834 146.49 375.681 146.191C375.529 145.893 375.298 145.664 374.987 145.506C374.676 145.348 374.287 145.269 373.818 145.269H371.682V156H369.046V143.203ZM376.2 156L373.282 150.296L376.068 150.278L379.021 155.877V156H376.2ZM383.097 143.203H387.869C388.848 143.203 389.689 143.35 390.392 143.643C391.101 143.936 391.646 144.369 392.027 144.943C392.407 145.518 392.598 146.224 392.598 147.062C392.598 147.747 392.481 148.336 392.246 148.828C392.018 149.314 391.693 149.722 391.271 150.05C390.855 150.372 390.365 150.63 389.803 150.823L388.968 151.263H384.82L384.802 149.206H387.887C388.35 149.206 388.734 149.124 389.038 148.96C389.343 148.796 389.571 148.567 389.724 148.274C389.882 147.981 389.961 147.642 389.961 147.255C389.961 146.845 389.885 146.49 389.733 146.191C389.58 145.893 389.349 145.664 389.038 145.506C388.728 145.348 388.338 145.269 387.869 145.269H385.734V156H383.097V143.203ZM390.251 156L387.333 150.296L390.119 150.278L393.072 155.877V156H390.251ZM407.66 149.303V149.909C407.66 150.882 407.528 151.755 407.264 152.528C407.001 153.302 406.629 153.961 406.148 154.506C405.668 155.045 405.093 155.458 404.425 155.745C403.763 156.032 403.028 156.176 402.219 156.176C401.417 156.176 400.681 156.032 400.013 155.745C399.351 155.458 398.777 155.045 398.291 154.506C397.804 153.961 397.426 153.302 397.157 152.528C396.893 151.755 396.761 150.882 396.761 149.909V149.303C396.761 148.324 396.893 147.451 397.157 146.684C397.421 145.91 397.793 145.251 398.273 144.706C398.759 144.161 399.334 143.745 399.996 143.458C400.664 143.171 401.399 143.027 402.202 143.027C403.01 143.027 403.746 143.171 404.408 143.458C405.076 143.745 405.65 144.161 406.131 144.706C406.617 145.251 406.992 145.91 407.256 146.684C407.525 147.451 407.66 148.324 407.66 149.303ZM404.997 149.909V149.285C404.997 148.605 404.935 148.008 404.812 147.492C404.689 146.977 404.508 146.543 404.267 146.191C404.027 145.84 403.734 145.576 403.388 145.4C403.043 145.219 402.647 145.128 402.202 145.128C401.757 145.128 401.361 145.219 401.015 145.4C400.675 145.576 400.385 145.84 400.145 146.191C399.911 146.543 399.732 146.977 399.609 147.492C399.486 148.008 399.424 148.605 399.424 149.285V149.909C399.424 150.583 399.486 151.181 399.609 151.702C399.732 152.218 399.914 152.654 400.154 153.012C400.394 153.363 400.687 153.63 401.033 153.812C401.379 153.993 401.774 154.084 402.219 154.084C402.665 154.084 403.06 153.993 403.406 153.812C403.752 153.63 404.042 153.363 404.276 153.012C404.51 152.654 404.689 152.218 404.812 151.702C404.935 151.181 404.997 150.583 404.997 149.909ZM415.163 153.97L417.712 143.203H419.136L419.461 144.996L416.745 156H415.216L415.163 153.97ZM413.854 143.203L415.963 153.97L415.787 156H414.082L411.243 143.203H413.854ZM421.702 153.926L423.785 143.203H426.396L423.566 156H421.861L421.702 153.926ZM419.936 143.203L422.502 154.014L422.432 156H420.902L418.169 144.987L418.521 143.203H419.936Z" fill="#18526D"/>
</svg>
