<svg width="1006" height="607" viewBox="0 0 1006 607" fill="none" xmlns="http://www.w3.org/2000/svg">
<g filter="url(#filter0_f_46_153)">
<ellipse cx="531.737" cy="558.237" rx="476.93" ry="4.76311" fill="black"/>
<path d="M57.4276 558.237C59.0419 558.082 61.4172 557.928 64.5213 557.776C70.8679 557.467 80.2327 557.168 92.2987 556.883C116.429 556.313 151.349 555.8 194.502 555.369C280.807 554.507 400.038 553.974 531.737 553.974C663.436 553.974 782.667 554.507 868.972 555.369C912.125 555.8 947.045 556.313 971.175 556.883C983.241 557.168 992.606 557.467 998.953 557.776C1002.06 557.928 1004.43 558.082 1006.05 558.237C1004.43 558.392 1002.06 558.546 998.953 558.697C992.606 559.007 983.241 559.306 971.175 559.591C947.045 560.161 912.125 560.674 868.972 561.105C782.667 561.967 663.436 562.5 531.737 562.5C400.038 562.5 280.807 561.967 194.502 561.105C151.349 560.674 116.429 560.161 92.2987 559.591C80.2327 559.306 70.8679 559.007 64.5213 558.697C61.4172 558.546 59.0419 558.392 57.4276 558.237Z" stroke="#16191D"/>
</g>
<path d="M104.291 28C104.291 13.0883 116.379 1 131.291 1H935.345C950.257 1 962.345 13.0883 962.345 28V523.753C962.345 525.41 961.002 526.753 959.345 526.753H107.291C105.634 526.753 104.291 525.41 104.291 523.753V28Z" fill="#1A202C" stroke="#16191D" stroke-width="2"/>
<path d="M110.561 26.7632C110.561 15.7175 119.515 6.76312 130.561 6.76312H936.075C947.121 6.76312 956.075 15.7174 956.075 26.7631V505.748H110.561V26.7632Z" fill="black" stroke="#16191D" stroke-width="4"/>
<rect x="127.425" y="31.5313" width="807.571" height="453.259" fill="white" stroke="#16191D" stroke-width="4"/>
<mask id="path-6-outside-1_46_153" maskUnits="userSpaceOnUse" x="489.996" y="508.7" width="84" height="13" fill="black">
<rect fill="white" x="489.996" y="508.7" width="84" height="13"/>
<path d="M491.41 510.246H493.506L496.312 517.097H496.423L499.23 510.246H501.326V519.7H499.682V513.205H499.595L496.982 519.673H495.754L493.141 513.191H493.053V519.7H491.41V510.246ZM505.158 519.844C504.708 519.844 504.303 519.764 503.943 519.603C503.586 519.44 503.303 519.2 503.094 518.883C502.888 518.566 502.785 518.175 502.785 517.711C502.785 517.311 502.858 516.98 503.006 516.718C503.154 516.457 503.356 516.247 503.611 516.09C503.866 515.933 504.154 515.815 504.474 515.735C504.797 515.652 505.131 515.592 505.476 515.555C505.892 515.512 506.229 515.473 506.487 515.439C506.746 515.402 506.933 515.347 507.05 515.273C507.17 515.196 507.23 515.078 507.23 514.918V514.89C507.23 514.542 507.127 514.273 506.921 514.082C506.715 513.891 506.418 513.796 506.03 513.796C505.621 513.796 505.296 513.885 505.056 514.064C504.819 514.242 504.659 514.453 504.576 514.696L503.015 514.475C503.139 514.044 503.342 513.684 503.625 513.394C503.908 513.102 504.254 512.883 504.664 512.739C505.073 512.591 505.525 512.517 506.021 512.517C506.362 512.517 506.702 512.557 507.041 512.637C507.38 512.717 507.689 512.85 507.969 513.034C508.249 513.216 508.474 513.464 508.643 513.777C508.815 514.091 508.901 514.484 508.901 514.955V519.7H507.295V518.726H507.24C507.138 518.923 506.995 519.108 506.81 519.28C506.629 519.45 506.399 519.587 506.122 519.691C505.848 519.793 505.527 519.844 505.158 519.844ZM505.591 518.616C505.927 518.616 506.218 518.549 506.464 518.417C506.71 518.282 506.899 518.103 507.032 517.882C507.167 517.66 507.235 517.418 507.235 517.157V516.321C507.183 516.364 507.093 516.404 506.967 516.441C506.844 516.478 506.706 516.51 506.552 516.538C506.398 516.566 506.245 516.59 506.095 516.612C505.944 516.634 505.813 516.652 505.702 516.667C505.453 516.701 505.23 516.757 505.033 516.834C504.836 516.911 504.68 517.018 504.567 517.157C504.453 517.292 504.396 517.468 504.396 517.683C504.396 517.991 504.508 518.223 504.733 518.38C504.957 518.537 505.244 518.616 505.591 518.616ZM513.675 519.839C512.967 519.839 512.359 519.684 511.851 519.373C511.347 519.062 510.957 518.632 510.683 518.085C510.413 517.534 510.277 516.9 510.277 516.183C510.277 515.463 510.416 514.827 510.693 514.276C510.97 513.722 511.361 513.291 511.865 512.983C512.373 512.673 512.973 512.517 513.666 512.517C514.241 512.517 514.751 512.623 515.194 512.836C515.64 513.045 515.995 513.342 516.26 513.727C516.525 514.108 516.676 514.555 516.713 515.065H515.115C515.051 514.724 514.897 514.439 514.654 514.211C514.414 513.981 514.092 513.865 513.689 513.865C513.347 513.865 513.047 513.958 512.789 514.142C512.53 514.324 512.328 514.585 512.184 514.927C512.042 515.269 511.971 515.678 511.971 516.155C511.971 516.638 512.042 517.054 512.184 517.401C512.325 517.746 512.524 518.012 512.779 518.2C513.038 518.385 513.341 518.477 513.689 518.477C513.935 518.477 514.155 518.431 514.349 518.339C514.546 518.243 514.711 518.106 514.843 517.928C514.975 517.749 515.066 517.532 515.115 517.277H516.713C516.673 517.778 516.525 518.223 516.269 518.611C516.014 518.996 515.666 519.297 515.226 519.516C514.786 519.731 514.269 519.839 513.675 519.839ZM518.159 519.7V510.246H519.83V513.782H519.899C519.985 513.61 520.107 513.427 520.264 513.233C520.421 513.036 520.633 512.868 520.901 512.73C521.169 512.588 521.51 512.517 521.926 512.517C522.474 512.517 522.967 512.657 523.408 512.937C523.851 513.214 524.202 513.625 524.46 514.17C524.722 514.712 524.853 515.376 524.853 516.164C524.853 516.943 524.725 517.605 524.469 518.149C524.214 518.694 523.866 519.11 523.426 519.396C522.986 519.682 522.487 519.825 521.93 519.825C521.524 519.825 521.187 519.757 520.919 519.622C520.652 519.487 520.436 519.323 520.273 519.133C520.113 518.939 519.988 518.756 519.899 518.583H519.802V519.7H518.159ZM519.798 516.155C519.798 516.614 519.862 517.015 519.991 517.36C520.124 517.705 520.313 517.974 520.559 518.168C520.809 518.359 521.11 518.454 521.464 518.454C521.833 518.454 522.143 518.356 522.392 518.159C522.641 517.958 522.829 517.686 522.955 517.341C523.084 516.994 523.149 516.598 523.149 516.155C523.149 515.715 523.086 515.324 522.96 514.982C522.834 514.641 522.646 514.373 522.397 514.179C522.147 513.985 521.836 513.888 521.464 513.888C521.107 513.888 520.804 513.982 520.555 514.17C520.305 514.358 520.116 514.621 519.987 514.959C519.861 515.298 519.798 515.696 519.798 516.155ZM529.366 519.839C528.674 519.839 528.074 519.687 527.566 519.382C527.058 519.077 526.664 518.651 526.384 518.103C526.107 517.555 525.969 516.915 525.969 516.183C525.969 515.45 526.107 514.809 526.384 514.258C526.664 513.707 527.058 513.279 527.566 512.974C528.074 512.67 528.674 512.517 529.366 512.517C530.059 512.517 530.659 512.67 531.167 512.974C531.675 513.279 532.067 513.707 532.344 514.258C532.624 514.809 532.764 515.45 532.764 516.183C532.764 516.915 532.624 517.555 532.344 518.103C532.067 518.651 531.675 519.077 531.167 519.382C530.659 519.687 530.059 519.839 529.366 519.839ZM529.376 518.5C529.751 518.5 530.065 518.397 530.317 518.191C530.57 517.982 530.757 517.702 530.881 517.351C531.007 517 531.07 516.609 531.07 516.178C531.07 515.744 531.007 515.352 530.881 515.001C530.757 514.647 530.57 514.365 530.317 514.156C530.065 513.947 529.751 513.842 529.376 513.842C528.991 513.842 528.671 513.947 528.415 514.156C528.163 514.365 527.974 514.647 527.847 515.001C527.724 515.352 527.663 515.744 527.663 516.178C527.663 516.609 527.724 517 527.847 517.351C527.974 517.702 528.163 517.982 528.415 518.191C528.671 518.397 528.991 518.5 529.376 518.5ZM537.275 519.839C536.583 519.839 535.983 519.687 535.475 519.382C534.967 519.077 534.573 518.651 534.293 518.103C534.016 517.555 533.878 516.915 533.878 516.183C533.878 515.45 534.016 514.809 534.293 514.258C534.573 513.707 534.967 513.279 535.475 512.974C535.983 512.67 536.583 512.517 537.275 512.517C537.968 512.517 538.568 512.67 539.076 512.974C539.584 513.279 539.976 513.707 540.253 514.258C540.533 514.809 540.673 515.45 540.673 516.183C540.673 516.915 540.533 517.555 540.253 518.103C539.976 518.651 539.584 519.077 539.076 519.382C538.568 519.687 537.968 519.839 537.275 519.839ZM537.285 518.5C537.66 518.5 537.974 518.397 538.226 518.191C538.479 517.982 538.667 517.702 538.79 517.351C538.916 517 538.979 516.609 538.979 516.178C538.979 515.744 538.916 515.352 538.79 515.001C538.667 514.647 538.479 514.365 538.226 514.156C537.974 513.947 537.66 513.842 537.285 513.842C536.9 513.842 536.58 513.947 536.324 514.156C536.072 514.365 535.883 514.647 535.757 515.001C535.634 515.352 535.572 515.744 535.572 516.178C535.572 516.609 535.634 517 535.757 517.351C535.883 517.702 536.072 517.982 536.324 518.191C536.58 518.397 536.9 518.5 537.285 518.5ZM543.615 517.475L543.61 515.458H543.878L546.427 512.61H548.379L545.245 516.1H544.898L543.615 517.475ZM542.092 519.7V510.246H543.763V519.7H542.092ZM546.542 519.7L544.234 516.474L545.36 515.296L548.541 519.7H546.542ZM552.791 519.7V510.246H556.337C557.063 510.246 557.673 510.381 558.165 510.652C558.661 510.923 559.034 511.295 559.287 511.769C559.542 512.24 559.67 512.776 559.67 513.376C559.67 513.982 559.542 514.521 559.287 514.992C559.031 515.463 558.654 515.833 558.156 516.104C557.657 516.372 557.043 516.506 556.314 516.506H553.964V515.098H556.083C556.508 515.098 556.856 515.024 557.126 514.876C557.397 514.728 557.597 514.525 557.726 514.267C557.859 514.008 557.925 513.711 557.925 513.376C557.925 513.04 557.859 512.745 557.726 512.49C557.597 512.234 557.396 512.036 557.122 511.894C556.851 511.749 556.502 511.677 556.074 511.677H554.504V519.7H552.791ZM561.084 519.7V512.61H562.704V513.791H562.778C562.907 513.382 563.129 513.067 563.443 512.845C563.76 512.62 564.121 512.508 564.528 512.508C564.62 512.508 564.723 512.513 564.837 512.522C564.954 512.528 565.051 512.539 565.128 512.554V514.091C565.057 514.067 564.945 514.045 564.791 514.027C564.64 514.005 564.494 513.994 564.352 513.994C564.048 513.994 563.774 514.061 563.531 514.193C563.29 514.322 563.101 514.502 562.963 514.733C562.824 514.964 562.755 515.23 562.755 515.532V519.7H561.084ZM569.039 519.839C568.347 519.839 567.747 519.687 567.239 519.382C566.731 519.077 566.337 518.651 566.057 518.103C565.78 517.555 565.641 516.915 565.641 516.183C565.641 515.45 565.78 514.809 566.057 514.258C566.337 513.707 566.731 513.279 567.239 512.974C567.747 512.67 568.347 512.517 569.039 512.517C569.732 512.517 570.332 512.67 570.84 512.974C571.347 513.279 571.74 513.707 572.017 514.258C572.297 514.809 572.437 515.45 572.437 516.183C572.437 516.915 572.297 517.555 572.017 518.103C571.74 518.651 571.347 519.077 570.84 519.382C570.332 519.687 569.732 519.839 569.039 519.839ZM569.048 518.5C569.424 518.5 569.738 518.397 569.99 518.191C570.243 517.982 570.43 517.702 570.553 517.351C570.68 517 570.743 516.609 570.743 516.178C570.743 515.744 570.68 515.352 570.553 515.001C570.43 514.647 570.243 514.365 569.99 514.156C569.738 513.947 569.424 513.842 569.048 513.842C568.664 513.842 568.344 513.947 568.088 514.156C567.836 514.365 567.647 514.647 567.52 515.001C567.397 515.352 567.336 515.744 567.336 516.178C567.336 516.609 567.397 517 567.52 517.351C567.647 517.702 567.836 517.982 568.088 518.191C568.344 518.397 568.664 518.5 569.048 518.5Z"/>
</mask>
<path d="M491.41 510.246H493.506L496.312 517.097H496.423L499.23 510.246H501.326V519.7H499.682V513.205H499.595L496.982 519.673H495.754L493.141 513.191H493.053V519.7H491.41V510.246ZM505.158 519.844C504.708 519.844 504.303 519.764 503.943 519.603C503.586 519.44 503.303 519.2 503.094 518.883C502.888 518.566 502.785 518.175 502.785 517.711C502.785 517.311 502.858 516.98 503.006 516.718C503.154 516.457 503.356 516.247 503.611 516.09C503.866 515.933 504.154 515.815 504.474 515.735C504.797 515.652 505.131 515.592 505.476 515.555C505.892 515.512 506.229 515.473 506.487 515.439C506.746 515.402 506.933 515.347 507.05 515.273C507.17 515.196 507.23 515.078 507.23 514.918V514.89C507.23 514.542 507.127 514.273 506.921 514.082C506.715 513.891 506.418 513.796 506.03 513.796C505.621 513.796 505.296 513.885 505.056 514.064C504.819 514.242 504.659 514.453 504.576 514.696L503.015 514.475C503.139 514.044 503.342 513.684 503.625 513.394C503.908 513.102 504.254 512.883 504.664 512.739C505.073 512.591 505.525 512.517 506.021 512.517C506.362 512.517 506.702 512.557 507.041 512.637C507.38 512.717 507.689 512.85 507.969 513.034C508.249 513.216 508.474 513.464 508.643 513.777C508.815 514.091 508.901 514.484 508.901 514.955V519.7H507.295V518.726H507.24C507.138 518.923 506.995 519.108 506.81 519.28C506.629 519.45 506.399 519.587 506.122 519.691C505.848 519.793 505.527 519.844 505.158 519.844ZM505.591 518.616C505.927 518.616 506.218 518.549 506.464 518.417C506.71 518.282 506.899 518.103 507.032 517.882C507.167 517.66 507.235 517.418 507.235 517.157V516.321C507.183 516.364 507.093 516.404 506.967 516.441C506.844 516.478 506.706 516.51 506.552 516.538C506.398 516.566 506.245 516.59 506.095 516.612C505.944 516.634 505.813 516.652 505.702 516.667C505.453 516.701 505.23 516.757 505.033 516.834C504.836 516.911 504.68 517.018 504.567 517.157C504.453 517.292 504.396 517.468 504.396 517.683C504.396 517.991 504.508 518.223 504.733 518.38C504.957 518.537 505.244 518.616 505.591 518.616ZM513.675 519.839C512.967 519.839 512.359 519.684 511.851 519.373C511.347 519.062 510.957 518.632 510.683 518.085C510.413 517.534 510.277 516.9 510.277 516.183C510.277 515.463 510.416 514.827 510.693 514.276C510.97 513.722 511.361 513.291 511.865 512.983C512.373 512.673 512.973 512.517 513.666 512.517C514.241 512.517 514.751 512.623 515.194 512.836C515.64 513.045 515.995 513.342 516.26 513.727C516.525 514.108 516.676 514.555 516.713 515.065H515.115C515.051 514.724 514.897 514.439 514.654 514.211C514.414 513.981 514.092 513.865 513.689 513.865C513.347 513.865 513.047 513.958 512.789 514.142C512.53 514.324 512.328 514.585 512.184 514.927C512.042 515.269 511.971 515.678 511.971 516.155C511.971 516.638 512.042 517.054 512.184 517.401C512.325 517.746 512.524 518.012 512.779 518.2C513.038 518.385 513.341 518.477 513.689 518.477C513.935 518.477 514.155 518.431 514.349 518.339C514.546 518.243 514.711 518.106 514.843 517.928C514.975 517.749 515.066 517.532 515.115 517.277H516.713C516.673 517.778 516.525 518.223 516.269 518.611C516.014 518.996 515.666 519.297 515.226 519.516C514.786 519.731 514.269 519.839 513.675 519.839ZM518.159 519.7V510.246H519.83V513.782H519.899C519.985 513.61 520.107 513.427 520.264 513.233C520.421 513.036 520.633 512.868 520.901 512.73C521.169 512.588 521.51 512.517 521.926 512.517C522.474 512.517 522.967 512.657 523.408 512.937C523.851 513.214 524.202 513.625 524.46 514.17C524.722 514.712 524.853 515.376 524.853 516.164C524.853 516.943 524.725 517.605 524.469 518.149C524.214 518.694 523.866 519.11 523.426 519.396C522.986 519.682 522.487 519.825 521.93 519.825C521.524 519.825 521.187 519.757 520.919 519.622C520.652 519.487 520.436 519.323 520.273 519.133C520.113 518.939 519.988 518.756 519.899 518.583H519.802V519.7H518.159ZM519.798 516.155C519.798 516.614 519.862 517.015 519.991 517.36C520.124 517.705 520.313 517.974 520.559 518.168C520.809 518.359 521.11 518.454 521.464 518.454C521.833 518.454 522.143 518.356 522.392 518.159C522.641 517.958 522.829 517.686 522.955 517.341C523.084 516.994 523.149 516.598 523.149 516.155C523.149 515.715 523.086 515.324 522.96 514.982C522.834 514.641 522.646 514.373 522.397 514.179C522.147 513.985 521.836 513.888 521.464 513.888C521.107 513.888 520.804 513.982 520.555 514.17C520.305 514.358 520.116 514.621 519.987 514.959C519.861 515.298 519.798 515.696 519.798 516.155ZM529.366 519.839C528.674 519.839 528.074 519.687 527.566 519.382C527.058 519.077 526.664 518.651 526.384 518.103C526.107 517.555 525.969 516.915 525.969 516.183C525.969 515.45 526.107 514.809 526.384 514.258C526.664 513.707 527.058 513.279 527.566 512.974C528.074 512.67 528.674 512.517 529.366 512.517C530.059 512.517 530.659 512.67 531.167 512.974C531.675 513.279 532.067 513.707 532.344 514.258C532.624 514.809 532.764 515.45 532.764 516.183C532.764 516.915 532.624 517.555 532.344 518.103C532.067 518.651 531.675 519.077 531.167 519.382C530.659 519.687 530.059 519.839 529.366 519.839ZM529.376 518.5C529.751 518.5 530.065 518.397 530.317 518.191C530.57 517.982 530.757 517.702 530.881 517.351C531.007 517 531.07 516.609 531.07 516.178C531.07 515.744 531.007 515.352 530.881 515.001C530.757 514.647 530.57 514.365 530.317 514.156C530.065 513.947 529.751 513.842 529.376 513.842C528.991 513.842 528.671 513.947 528.415 514.156C528.163 514.365 527.974 514.647 527.847 515.001C527.724 515.352 527.663 515.744 527.663 516.178C527.663 516.609 527.724 517 527.847 517.351C527.974 517.702 528.163 517.982 528.415 518.191C528.671 518.397 528.991 518.5 529.376 518.5ZM537.275 519.839C536.583 519.839 535.983 519.687 535.475 519.382C534.967 519.077 534.573 518.651 534.293 518.103C534.016 517.555 533.878 516.915 533.878 516.183C533.878 515.45 534.016 514.809 534.293 514.258C534.573 513.707 534.967 513.279 535.475 512.974C535.983 512.67 536.583 512.517 537.275 512.517C537.968 512.517 538.568 512.67 539.076 512.974C539.584 513.279 539.976 513.707 540.253 514.258C540.533 514.809 540.673 515.45 540.673 516.183C540.673 516.915 540.533 517.555 540.253 518.103C539.976 518.651 539.584 519.077 539.076 519.382C538.568 519.687 537.968 519.839 537.275 519.839ZM537.285 518.5C537.66 518.5 537.974 518.397 538.226 518.191C538.479 517.982 538.667 517.702 538.79 517.351C538.916 517 538.979 516.609 538.979 516.178C538.979 515.744 538.916 515.352 538.79 515.001C538.667 514.647 538.479 514.365 538.226 514.156C537.974 513.947 537.66 513.842 537.285 513.842C536.9 513.842 536.58 513.947 536.324 514.156C536.072 514.365 535.883 514.647 535.757 515.001C535.634 515.352 535.572 515.744 535.572 516.178C535.572 516.609 535.634 517 535.757 517.351C535.883 517.702 536.072 517.982 536.324 518.191C536.58 518.397 536.9 518.5 537.285 518.5ZM543.615 517.475L543.61 515.458H543.878L546.427 512.61H548.379L545.245 516.1H544.898L543.615 517.475ZM542.092 519.7V510.246H543.763V519.7H542.092ZM546.542 519.7L544.234 516.474L545.36 515.296L548.541 519.7H546.542ZM552.791 519.7V510.246H556.337C557.063 510.246 557.673 510.381 558.165 510.652C558.661 510.923 559.034 511.295 559.287 511.769C559.542 512.24 559.67 512.776 559.67 513.376C559.67 513.982 559.542 514.521 559.287 514.992C559.031 515.463 558.654 515.833 558.156 516.104C557.657 516.372 557.043 516.506 556.314 516.506H553.964V515.098H556.083C556.508 515.098 556.856 515.024 557.126 514.876C557.397 514.728 557.597 514.525 557.726 514.267C557.859 514.008 557.925 513.711 557.925 513.376C557.925 513.04 557.859 512.745 557.726 512.49C557.597 512.234 557.396 512.036 557.122 511.894C556.851 511.749 556.502 511.677 556.074 511.677H554.504V519.7H552.791ZM561.084 519.7V512.61H562.704V513.791H562.778C562.907 513.382 563.129 513.067 563.443 512.845C563.76 512.62 564.121 512.508 564.528 512.508C564.62 512.508 564.723 512.513 564.837 512.522C564.954 512.528 565.051 512.539 565.128 512.554V514.091C565.057 514.067 564.945 514.045 564.791 514.027C564.64 514.005 564.494 513.994 564.352 513.994C564.048 513.994 563.774 514.061 563.531 514.193C563.29 514.322 563.101 514.502 562.963 514.733C562.824 514.964 562.755 515.23 562.755 515.532V519.7H561.084ZM569.039 519.839C568.347 519.839 567.747 519.687 567.239 519.382C566.731 519.077 566.337 518.651 566.057 518.103C565.78 517.555 565.641 516.915 565.641 516.183C565.641 515.45 565.78 514.809 566.057 514.258C566.337 513.707 566.731 513.279 567.239 512.974C567.747 512.67 568.347 512.517 569.039 512.517C569.732 512.517 570.332 512.67 570.84 512.974C571.347 513.279 571.74 513.707 572.017 514.258C572.297 514.809 572.437 515.45 572.437 516.183C572.437 516.915 572.297 517.555 572.017 518.103C571.74 518.651 571.347 519.077 570.84 519.382C570.332 519.687 569.732 519.839 569.039 519.839ZM569.048 518.5C569.424 518.5 569.738 518.397 569.99 518.191C570.243 517.982 570.43 517.702 570.553 517.351C570.68 517 570.743 516.609 570.743 516.178C570.743 515.744 570.68 515.352 570.553 515.001C570.43 514.647 570.243 514.365 569.99 514.156C569.738 513.947 569.424 513.842 569.048 513.842C568.664 513.842 568.344 513.947 568.088 514.156C567.836 514.365 567.647 514.647 567.52 515.001C567.397 515.352 567.336 515.744 567.336 516.178C567.336 516.609 567.397 517 567.52 517.351C567.647 517.702 567.836 517.982 568.088 518.191C568.344 518.397 568.664 518.5 569.048 518.5Z" fill="#A0AEC0"/>
<path d="M491.41 510.246V509.246H490.41V510.246H491.41ZM493.506 510.246L494.431 509.867L494.176 509.246H493.506V510.246ZM496.312 517.097L495.387 517.476L495.641 518.097H496.312V517.097ZM496.423 517.097V518.097H497.094L497.348 517.476L496.423 517.097ZM499.23 510.246V509.246H498.559L498.305 509.867L499.23 510.246ZM501.326 510.246H502.326V509.246H501.326V510.246ZM501.326 519.7V520.7H502.326V519.7H501.326ZM499.682 519.7H498.682V520.7H499.682V519.7ZM499.682 513.205H500.682V512.205H499.682V513.205ZM499.595 513.205V512.205H498.92L498.667 512.83L499.595 513.205ZM496.982 519.673V520.673H497.656L497.909 520.047L496.982 519.673ZM495.754 519.673L494.826 520.047L495.079 520.673H495.754V519.673ZM493.141 513.191L494.068 512.817L493.816 512.191H493.141V513.191ZM493.053 513.191V512.191H492.053V513.191H493.053ZM493.053 519.7V520.7H494.053V519.7H493.053ZM491.41 519.7H490.41V520.7H491.41V519.7ZM491.41 511.246H493.506V509.246H491.41V511.246ZM492.58 510.625L495.387 517.476L497.238 516.718L494.431 509.867L492.58 510.625ZM496.312 518.097H496.423V516.097H496.312V518.097ZM497.348 517.476L500.155 510.625L498.305 509.867L495.498 516.718L497.348 517.476ZM499.23 511.246H501.326V509.246H499.23V511.246ZM500.326 510.246V519.7H502.326V510.246H500.326ZM501.326 518.7H499.682V520.7H501.326V518.7ZM500.682 519.7V513.205H498.682V519.7H500.682ZM499.682 512.205H499.595V514.205H499.682V512.205ZM498.667 512.83L496.055 519.298L497.909 520.047L500.522 513.58L498.667 512.83ZM496.982 518.673H495.754V520.673H496.982V518.673ZM496.681 519.299L494.068 512.817L492.213 513.565L494.826 520.047L496.681 519.299ZM493.141 512.191H493.053V514.191H493.141V512.191ZM492.053 513.191V519.7H494.053V513.191H492.053ZM493.053 518.7H491.41V520.7H493.053V518.7ZM492.41 519.7V510.246H490.41V519.7H492.41ZM503.943 519.603L503.528 520.513L503.537 520.517L503.943 519.603ZM503.094 518.883L502.256 519.429L502.259 519.434L503.094 518.883ZM503.006 516.718L502.135 516.226L502.135 516.226L503.006 516.718ZM503.611 516.09L503.087 515.238L503.087 515.238L503.611 516.09ZM504.474 515.735L504.717 516.705L504.723 516.703L504.474 515.735ZM505.476 515.555L505.373 514.56L505.37 514.561L505.476 515.555ZM506.487 515.439L506.617 516.431L506.628 516.429L506.487 515.439ZM507.05 515.273L507.584 516.119L507.59 516.115L507.05 515.273ZM506.921 514.082L507.6 513.348V513.348L506.921 514.082ZM505.056 514.064L504.459 513.261L504.454 513.265L505.056 514.064ZM504.576 514.696L504.435 515.686L505.254 515.803L505.522 515.02L504.576 514.696ZM503.015 514.475L502.054 514.2L501.739 515.303L502.875 515.465L503.015 514.475ZM503.625 513.394L504.34 514.094L504.343 514.09L503.625 513.394ZM504.664 512.739L504.997 513.682L505.003 513.679L504.664 512.739ZM507.969 513.034L507.418 513.869L507.425 513.873L507.969 513.034ZM508.643 513.777L507.763 514.252L507.766 514.259L508.643 513.777ZM508.901 519.7V520.7H509.901V519.7H508.901ZM507.295 519.7H506.295V520.7H507.295V519.7ZM507.295 518.726H508.295V517.726H507.295V518.726ZM507.24 518.726V517.726H506.63L506.351 518.268L507.24 518.726ZM506.81 519.28L507.492 520.012L507.493 520.011L506.81 519.28ZM506.122 519.691L506.47 520.629L506.476 520.627L506.122 519.691ZM506.464 518.417L506.937 519.298L506.946 519.293L506.464 518.417ZM507.032 517.882L506.178 517.36L506.173 517.369L507.032 517.882ZM507.235 516.321H508.235V514.202L506.599 515.549L507.235 516.321ZM506.967 516.441L506.686 515.481L506.68 515.483L506.967 516.441ZM506.552 516.538L506.729 517.522H506.729L506.552 516.538ZM505.702 516.667L505.837 517.658L505.84 517.658L505.702 516.667ZM505.033 516.834L504.669 515.902L505.033 516.834ZM504.567 517.157L505.332 517.8L505.339 517.792L504.567 517.157ZM504.733 518.38L504.16 519.2L504.733 518.38ZM505.158 518.844C504.829 518.844 504.565 518.785 504.35 518.69L503.537 520.517C504.042 520.742 504.588 520.844 505.158 520.844V518.844ZM504.359 518.694C504.166 518.606 504.031 518.488 503.928 518.332L502.259 519.434C502.576 519.913 503.006 520.275 503.528 520.513L504.359 518.694ZM503.932 518.338C503.853 518.217 503.785 518.026 503.785 517.711H501.785C501.785 518.325 501.922 518.916 502.256 519.429L503.932 518.338ZM503.785 517.711C503.785 517.428 503.838 517.28 503.877 517.21L502.135 516.226C501.879 516.68 501.785 517.194 501.785 517.711H503.785ZM503.877 517.21C503.942 517.096 504.024 517.01 504.135 516.942L503.087 515.238C502.687 515.484 502.366 515.818 502.135 516.226L503.877 517.21ZM504.135 516.942C504.295 516.844 504.486 516.763 504.717 516.705L504.232 514.765C503.822 514.867 503.438 515.023 503.087 515.238L504.135 516.942ZM504.723 516.703C504.998 516.633 505.284 516.581 505.583 516.549L505.37 514.561C504.979 514.602 504.597 514.671 504.225 514.766L504.723 516.703ZM505.579 516.55C505.999 516.506 506.346 516.466 506.617 516.431L506.357 514.448C506.111 514.48 505.784 514.518 505.373 514.56L505.579 516.55ZM506.628 516.429C506.924 516.387 507.284 516.308 507.584 516.119L506.516 514.428C506.541 514.412 506.556 514.406 506.559 514.405C506.561 514.403 506.556 514.406 506.539 514.411C506.504 514.421 506.442 514.436 506.346 514.449L506.628 516.429ZM507.59 516.115C508.036 515.829 508.23 515.369 508.23 514.918H506.23C506.23 514.873 506.239 514.782 506.293 514.675C506.35 514.563 506.432 514.482 506.511 514.431L507.59 516.115ZM508.23 514.918V514.89H506.23V514.918H508.23ZM508.23 514.89C508.23 514.335 508.058 513.772 507.6 513.348L506.242 514.816C506.237 514.812 506.232 514.806 506.226 514.798C506.224 514.794 506.222 514.791 506.221 514.789C506.22 514.786 506.219 514.785 506.219 514.785C506.219 514.785 506.22 514.787 506.221 514.79C506.222 514.794 506.223 514.8 506.225 514.809C506.227 514.826 506.23 514.852 506.23 514.89H508.23ZM507.6 513.348C507.149 512.93 506.573 512.796 506.03 512.796V514.796C506.144 514.796 506.209 514.81 506.238 514.82C506.263 514.828 506.257 514.83 506.242 514.816L507.6 513.348ZM506.03 512.796C505.484 512.796 504.925 512.915 504.459 513.261L505.653 514.866C505.667 514.856 505.758 514.796 506.03 514.796V512.796ZM504.454 513.265C504.083 513.545 503.787 513.912 503.63 514.373L505.522 515.02C505.531 514.994 505.555 514.94 505.658 514.862L504.454 513.265ZM504.716 513.706L503.156 513.485L502.875 515.465L504.435 515.686L504.716 513.706ZM503.977 514.749C504.059 514.461 504.185 514.252 504.34 514.094L502.91 512.695C502.499 513.115 502.218 513.627 502.054 514.2L503.977 514.749ZM504.343 514.09C504.512 513.916 504.723 513.778 504.997 513.682L504.33 511.796C503.785 511.989 503.304 512.288 502.906 512.699L504.343 514.09ZM505.003 513.679C505.289 513.576 505.625 513.517 506.021 513.517V511.517C505.425 511.517 504.856 511.606 504.324 511.798L505.003 513.679ZM506.021 513.517C506.284 513.517 506.546 513.548 506.811 513.61L507.271 511.664C506.859 511.567 506.441 511.517 506.021 511.517V513.517ZM506.811 513.61C507.04 513.664 507.24 513.751 507.418 513.869L508.519 512.199C508.138 511.948 507.719 511.77 507.271 511.664L506.811 513.61ZM507.425 513.873C507.554 513.957 507.668 514.076 507.763 514.252L509.523 513.303C509.28 512.852 508.944 512.474 508.513 512.195L507.425 513.873ZM507.766 514.259C507.836 514.386 507.901 514.601 507.901 514.955H509.901C509.901 514.367 509.794 513.797 509.52 513.296L507.766 514.259ZM507.901 514.955V519.7H509.901V514.955H507.901ZM508.901 518.7H507.295V520.7H508.901V518.7ZM508.295 519.7V518.726H506.295V519.7H508.295ZM507.295 517.726H507.24V519.726H507.295V517.726ZM506.351 518.268C506.309 518.35 506.24 518.445 506.128 518.549L507.493 520.011C507.75 519.771 507.967 519.497 508.128 519.185L506.351 518.268ZM506.128 518.549C506.058 518.614 505.947 518.688 505.769 518.756L506.476 520.627C506.851 520.485 507.199 520.285 507.492 520.012L506.128 518.549ZM505.775 518.754C505.637 518.805 505.438 518.844 505.158 518.844V520.844C505.615 520.844 506.06 520.781 506.47 520.629L505.775 518.754ZM505.591 519.616C506.059 519.616 506.519 519.523 506.937 519.298L505.991 517.536C505.916 517.576 505.795 517.616 505.591 517.616V519.616ZM506.946 519.293C507.333 519.08 507.659 518.782 507.89 518.394L506.173 517.369C506.14 517.425 506.087 517.483 505.982 517.541L506.946 519.293ZM507.885 518.403C508.117 518.023 508.235 517.601 508.235 517.157H506.235C506.235 517.236 506.217 517.297 506.179 517.36L507.885 518.403ZM508.235 517.157V516.321H506.235V517.157H508.235ZM506.599 515.549C506.634 515.52 506.664 515.501 506.683 515.491C506.702 515.479 506.715 515.473 506.72 515.471C506.728 515.467 506.719 515.472 506.686 515.481L507.248 517.401C507.405 517.355 507.656 517.27 507.871 517.093L506.599 515.549ZM506.68 515.483C506.6 515.507 506.499 515.532 506.375 515.554L506.729 517.522C506.912 517.489 507.088 517.449 507.255 517.399L506.68 515.483ZM506.375 515.554C506.232 515.58 506.092 515.602 505.953 515.622L506.236 517.602C506.399 517.579 506.563 517.552 506.729 517.522L506.375 515.554ZM505.953 515.622C505.803 515.643 505.674 515.662 505.565 515.677L505.84 517.658C505.952 517.642 506.084 517.624 506.236 517.602L505.953 515.622ZM505.568 515.677C505.254 515.719 504.952 515.792 504.669 515.902L505.397 517.765C505.508 517.722 505.652 517.683 505.837 517.658L505.568 515.677ZM504.669 515.902C504.341 516.03 504.035 516.229 503.794 516.522L505.339 517.792C505.334 517.798 505.332 517.798 505.338 517.794C505.345 517.789 505.362 517.778 505.397 517.765L504.669 515.902ZM503.801 516.513C503.505 516.866 503.396 517.285 503.396 517.683H505.396C505.396 517.663 505.398 517.671 505.39 517.699C505.38 517.728 505.361 517.765 505.332 517.8L503.801 516.513ZM503.396 517.683C503.396 518.271 503.632 518.831 504.16 519.2L505.305 517.56C505.313 517.565 505.326 517.576 505.341 517.594C505.357 517.612 505.37 517.632 505.38 517.653C505.401 517.696 505.396 517.715 505.396 517.683H503.396ZM504.16 519.2C504.593 519.502 505.094 519.616 505.591 519.616V517.616C505.393 517.616 505.322 517.572 505.305 517.56L504.16 519.2ZM511.851 519.373L511.327 520.224L511.329 520.226L511.851 519.373ZM510.683 518.085L509.786 518.526L509.789 518.532L510.683 518.085ZM510.693 514.276L511.586 514.725L511.587 514.723L510.693 514.276ZM511.865 512.983L512.386 513.837L512.387 513.836L511.865 512.983ZM515.194 512.836L514.762 513.738L514.769 513.741L515.194 512.836ZM516.26 513.727L515.436 514.294L515.438 514.297L516.26 513.727ZM516.713 515.065V516.065H517.787L517.71 514.993L516.713 515.065ZM515.115 515.065L514.133 515.251L514.287 516.065H515.115V515.065ZM514.654 514.211L513.96 514.932L513.97 514.941L514.654 514.211ZM512.789 514.142L513.363 514.961L513.37 514.956L512.789 514.142ZM512.184 514.927L511.263 514.537L511.26 514.544L512.184 514.927ZM512.184 517.401L511.258 517.778L511.259 517.781L512.184 517.401ZM512.779 518.2L512.187 519.006L512.198 519.014L512.779 518.2ZM514.349 518.339L514.779 519.241L514.785 519.239L514.349 518.339ZM514.843 517.928L514.04 517.332H514.04L514.843 517.928ZM515.115 517.277V516.277H514.29L514.133 517.088L515.115 517.277ZM516.713 517.277L517.709 517.356L517.795 516.277H516.713V517.277ZM516.269 518.611L517.102 519.164L517.104 519.161L516.269 518.611ZM515.226 519.516L515.666 520.414L515.671 520.411L515.226 519.516ZM513.675 518.839C513.116 518.839 512.697 518.718 512.373 518.52L511.329 520.226C512.022 520.649 512.818 520.839 513.675 520.839V518.839ZM512.376 518.521C512.035 518.311 511.771 518.025 511.578 517.637L509.789 518.532C510.143 519.24 510.658 519.812 511.327 520.224L512.376 518.521ZM511.581 517.643C511.388 517.251 511.277 516.772 511.277 516.183H509.277C509.277 517.027 509.437 517.816 509.786 518.526L511.581 517.643ZM511.277 516.183C511.277 515.592 511.39 515.115 511.586 514.725L509.799 513.827C509.441 514.539 509.277 515.333 509.277 516.183H511.277ZM511.587 514.723C511.784 514.329 512.049 514.043 512.386 513.837L511.345 512.13C510.672 512.54 510.155 513.115 509.798 513.829L511.587 514.723ZM512.387 513.836C512.714 513.636 513.127 513.517 513.666 513.517V511.517C512.819 511.517 512.032 511.709 511.343 512.131L512.387 513.836ZM513.666 513.517C514.117 513.517 514.475 513.6 514.762 513.738L515.626 511.934C515.027 511.647 514.365 511.517 513.666 511.517V513.517ZM514.769 513.741C515.064 513.879 515.278 514.063 515.436 514.294L517.084 513.16C516.713 512.621 516.216 512.211 515.618 511.93L514.769 513.741ZM515.438 514.297C515.591 514.516 515.69 514.786 515.715 515.138L517.71 514.993C517.661 514.323 517.459 513.7 517.082 513.157L515.438 514.297ZM516.713 514.065H515.115V516.065H516.713V514.065ZM516.098 514.88C515.996 514.339 515.742 513.861 515.337 513.482L513.97 514.941C514.051 515.017 514.106 515.108 514.133 515.251L516.098 514.88ZM515.347 513.491C514.883 513.044 514.293 512.865 513.689 512.865V514.865C513.891 514.865 513.945 514.917 513.96 514.932L515.347 513.491ZM513.689 512.865C513.155 512.865 512.648 513.013 512.207 513.328L513.37 514.956C513.446 514.902 513.539 514.865 513.689 514.865V512.865ZM512.214 513.324C511.777 513.631 511.468 514.054 511.263 514.537L513.105 515.317C513.189 515.117 513.283 515.017 513.363 514.961L512.214 513.324ZM511.26 514.544C511.056 515.037 510.971 515.583 510.971 516.155H512.971C512.971 515.773 513.029 515.5 513.108 515.31L511.26 514.544ZM510.971 516.155C510.971 516.732 511.055 517.282 511.258 517.778L513.11 517.024C513.029 516.825 512.971 516.544 512.971 516.155H510.971ZM511.259 517.781C511.458 518.266 511.759 518.692 512.187 519.006L513.372 517.394C513.288 517.333 513.193 517.227 513.109 517.022L511.259 517.781ZM512.198 519.014C512.642 519.331 513.153 519.477 513.689 519.477V517.477C513.529 517.477 513.433 517.438 513.361 517.386L512.198 519.014ZM513.689 519.477C514.062 519.477 514.432 519.406 514.779 519.241L513.919 517.436C513.878 517.455 513.808 517.477 513.689 517.477V519.477ZM514.785 519.239C515.129 519.072 515.419 518.829 515.646 518.523L514.04 517.332C514.002 517.383 513.962 517.415 513.913 517.439L514.785 519.239ZM515.646 518.523C515.882 518.206 516.024 517.844 516.097 517.466L514.133 517.088C514.108 517.221 514.069 517.293 514.04 517.332L515.646 518.523ZM515.115 518.277H516.713V516.277H515.115V518.277ZM515.716 517.197C515.688 517.545 515.589 517.825 515.434 518.061L517.104 519.161C517.46 518.621 517.657 518.011 517.709 517.356L515.716 517.197ZM515.436 518.058C515.284 518.287 515.075 518.474 514.781 518.62L515.671 520.411C516.258 520.12 516.744 519.705 517.102 519.164L515.436 518.058ZM514.786 518.618C514.509 518.753 514.148 518.839 513.675 518.839V520.839C514.389 520.839 515.063 520.709 515.666 520.414L514.786 518.618ZM518.159 519.7H517.159V520.7H518.159V519.7ZM518.159 510.246V509.246H517.159V510.246H518.159ZM519.83 510.246H520.83V509.246H519.83V510.246ZM519.83 513.782H518.83V514.782H519.83V513.782ZM519.899 513.782V514.782H520.517L520.793 514.229L519.899 513.782ZM520.264 513.233L521.041 513.862L521.046 513.856L520.264 513.233ZM520.901 512.73L521.36 513.618L521.368 513.614L520.901 512.73ZM523.408 512.937L522.871 513.781L522.878 513.785L523.408 512.937ZM524.46 514.17L523.557 514.599L523.56 514.605L524.46 514.17ZM524.469 518.149L523.564 517.725L524.469 518.149ZM523.426 519.396L523.971 520.234L523.426 519.396ZM520.919 519.622L520.468 520.514L520.919 519.622ZM520.273 519.133L519.502 519.769L519.507 519.776L519.513 519.782L520.273 519.133ZM519.899 518.583L520.787 518.123L520.507 517.583H519.899V518.583ZM519.802 518.583V517.583H518.802V518.583H519.802ZM519.802 519.7V520.7H520.802V519.7H519.802ZM519.991 517.36L519.055 517.711L519.058 517.718L519.991 517.36ZM520.559 518.168L519.94 518.953L519.951 518.962L520.559 518.168ZM522.392 518.159L523.012 518.943L523.018 518.938L522.392 518.159ZM522.955 517.341L522.018 516.993L522.016 516.998L522.955 517.341ZM522.96 514.982L523.898 514.636L522.96 514.982ZM522.397 514.179L523.011 513.39V513.39L522.397 514.179ZM520.555 514.17L519.953 513.371V513.371L520.555 514.17ZM519.987 514.959L519.053 514.603L519.05 514.61L519.987 514.959ZM519.159 519.7V510.246H517.159V519.7H519.159ZM518.159 511.246H519.83V509.246H518.159V511.246ZM518.83 510.246V513.782H520.83V510.246H518.83ZM519.83 514.782H519.899V512.782H519.83V514.782ZM520.793 514.229C520.839 514.137 520.917 514.015 521.041 513.862L519.487 512.604C519.297 512.838 519.131 513.082 519.005 513.335L520.793 514.229ZM521.046 513.856C521.1 513.789 521.193 513.704 521.36 513.618L520.441 511.841C520.073 512.032 519.742 512.283 519.482 512.61L521.046 513.856ZM521.368 513.614C521.448 513.571 521.616 513.517 521.926 513.517V511.517C521.405 511.517 520.889 511.605 520.433 511.846L521.368 513.614ZM521.926 513.517C522.293 513.517 522.599 513.608 522.871 513.781L523.944 512.094C523.336 511.706 522.654 511.517 521.926 511.517V513.517ZM522.878 513.785C523.135 513.946 523.367 514.199 523.557 514.599L525.364 513.741C525.036 513.051 524.566 512.482 523.938 512.089L522.878 513.785ZM523.56 514.605C523.739 514.976 523.853 515.482 523.853 516.164H525.853C525.853 515.271 525.705 514.448 525.361 513.735L523.56 514.605ZM523.853 516.164C523.853 516.838 523.742 517.346 523.564 517.725L525.375 518.574C525.708 517.863 525.853 517.048 525.853 516.164H523.853ZM523.564 517.725C523.376 518.126 523.143 518.387 522.881 518.557L523.971 520.234C524.589 519.832 525.052 519.262 525.375 518.574L523.564 517.725ZM522.881 518.557C522.613 518.732 522.306 518.825 521.93 518.825V520.825C522.669 520.825 523.359 520.632 523.971 520.234L522.881 518.557ZM521.93 518.825C521.628 518.825 521.458 518.774 521.371 518.73L520.468 520.514C520.916 520.741 521.42 520.825 521.93 520.825V518.825ZM521.371 518.73C521.198 518.642 521.095 518.556 521.033 518.483L519.513 519.782C519.777 520.091 520.105 520.331 520.468 520.514L521.371 518.73ZM521.044 518.496C520.917 518.342 520.836 518.218 520.787 518.123L519.011 519.043C519.141 519.294 519.309 519.536 519.502 519.769L521.044 518.496ZM519.899 517.583H519.802V519.583H519.899V517.583ZM518.802 518.583V519.7H520.802V518.583H518.802ZM519.802 518.7H518.159V520.7H519.802V518.7ZM518.798 516.155C518.798 516.705 518.875 517.23 519.055 517.711L520.928 517.009C520.849 516.8 520.798 516.522 520.798 516.155H518.798ZM519.058 517.718C519.243 518.201 519.529 518.63 519.941 518.953L521.178 517.382C521.097 517.318 521.004 517.208 520.925 517.001L519.058 517.718ZM519.951 518.962C520.397 519.303 520.92 519.454 521.464 519.454V517.454C521.3 517.454 521.22 517.414 521.167 517.374L519.951 518.962ZM521.464 519.454C522.02 519.454 522.558 519.302 523.012 518.943L521.772 517.374C521.727 517.409 521.647 517.454 521.464 517.454V519.454ZM523.018 518.938C523.429 518.608 523.715 518.175 523.894 517.685L522.016 516.998C521.943 517.197 521.853 517.309 521.766 517.379L523.018 518.938ZM523.893 517.69C524.07 517.211 524.149 516.695 524.149 516.155H522.149C522.149 516.502 522.098 516.776 522.018 516.993L523.893 517.69ZM524.149 516.155C524.149 515.621 524.073 515.109 523.898 514.636L522.022 515.329C522.099 515.539 522.149 515.809 522.149 516.155H524.149ZM523.898 514.636C523.717 514.147 523.428 513.715 523.011 513.39L521.783 514.968C521.863 515.031 521.95 515.135 522.022 515.329L523.898 514.636ZM523.011 513.39C522.556 513.036 522.017 512.888 521.464 512.888V514.888C521.655 514.888 521.739 514.935 521.783 514.968L523.011 513.39ZM521.464 512.888C520.923 512.888 520.4 513.034 519.953 513.371L521.156 514.969C521.208 514.93 521.291 514.888 521.464 514.888V512.888ZM519.953 513.371C519.531 513.689 519.238 514.117 519.053 514.603L520.921 515.316C520.994 515.124 521.08 515.026 521.156 514.969L519.953 513.371ZM519.05 514.61C518.872 515.086 518.798 515.608 518.798 516.155H520.798C520.798 515.785 520.849 515.51 520.924 515.309L519.05 514.61ZM527.566 519.382L527.051 520.239L527.566 519.382ZM526.384 518.103L525.492 518.554L525.494 518.558L526.384 518.103ZM526.384 514.258L525.493 513.804L525.491 513.808L526.384 514.258ZM527.566 512.974L528.08 513.832L527.566 512.974ZM531.167 512.974L530.652 513.832V513.832L531.167 512.974ZM532.344 514.258L531.451 514.707L531.453 514.711L532.344 514.258ZM532.344 518.103L531.454 517.648L531.452 517.652L532.344 518.103ZM531.167 519.382L530.652 518.524L531.167 519.382ZM530.317 518.191L530.95 518.965L530.956 518.961L530.317 518.191ZM530.881 517.351L529.939 517.012L529.937 517.02L530.881 517.351ZM530.881 515.001L529.936 515.329L529.94 515.339L530.881 515.001ZM530.317 514.156L530.956 513.386V513.386L530.317 514.156ZM528.415 514.156L527.782 513.382L527.777 513.386L528.415 514.156ZM527.847 515.001L526.906 514.665L526.904 514.67L527.847 515.001ZM527.847 517.351L526.904 517.682L526.906 517.689L527.847 517.351ZM528.415 518.191L527.777 518.961L527.787 518.969L528.415 518.191ZM529.366 518.839C528.824 518.839 528.408 518.721 528.08 518.524L527.051 520.239C527.739 520.652 528.524 520.839 529.366 520.839V518.839ZM528.08 518.524C527.739 518.32 527.473 518.036 527.274 517.648L525.494 518.558C525.855 519.266 526.377 519.835 527.051 520.239L528.08 518.524ZM527.276 517.652C527.083 517.269 526.969 516.788 526.969 516.183H524.969C524.969 517.042 525.132 517.842 525.492 518.554L527.276 517.652ZM526.969 516.183C526.969 515.577 527.083 515.094 527.277 514.707L525.491 513.808C525.132 514.523 524.969 515.323 524.969 516.183H526.969ZM527.275 514.711C527.474 514.32 527.741 514.035 528.08 513.832L527.051 512.117C526.375 512.522 525.854 513.094 525.493 513.804L527.275 514.711ZM528.08 513.832C528.408 513.635 528.824 513.517 529.366 513.517V511.517C528.524 511.517 527.739 511.704 527.051 512.117L528.08 513.832ZM529.366 513.517C529.909 513.517 530.324 513.635 530.652 513.832L531.681 512.117C530.993 511.704 530.209 511.517 529.366 511.517V513.517ZM530.652 513.832C530.991 514.035 531.255 514.318 531.451 514.707L533.237 513.808C532.879 513.096 532.358 512.523 531.681 512.117L530.652 513.832ZM531.453 514.711C531.649 515.098 531.764 515.579 531.764 516.183H533.764C533.764 515.322 533.599 514.519 533.235 513.804L531.453 514.711ZM531.764 516.183C531.764 516.787 531.649 517.265 531.454 517.648L533.234 518.558C533.599 517.845 533.764 517.043 533.764 516.183H531.764ZM531.452 517.652C531.256 518.038 530.992 518.32 530.652 518.524L531.681 520.239C532.357 519.834 532.878 519.264 533.236 518.554L531.452 517.652ZM530.652 518.524C530.324 518.721 529.909 518.839 529.366 518.839V520.839C530.209 520.839 530.993 520.652 531.681 520.239L530.652 518.524ZM529.376 519.5C529.945 519.5 530.492 519.339 530.95 518.965L529.685 517.416C529.637 517.455 529.557 517.5 529.376 517.5V519.5ZM530.956 518.961C531.366 518.621 531.649 518.18 531.824 517.682L529.937 517.02C529.866 517.223 529.774 517.343 529.679 517.421L530.956 518.961ZM531.822 517.689C531.992 517.214 532.07 516.707 532.07 516.178H530.07C530.07 516.511 530.021 516.785 529.94 517.012L531.822 517.689ZM532.07 516.178C532.07 515.647 531.993 515.138 531.822 514.662L529.94 515.339C530.021 515.565 530.07 515.841 530.07 516.178H532.07ZM531.825 514.672C531.651 514.171 531.368 513.728 530.956 513.386L529.679 514.926C529.772 515.003 529.864 515.123 529.936 515.329L531.825 514.672ZM530.956 513.386C530.498 513.007 529.948 512.842 529.376 512.842V514.842C529.554 514.842 529.632 514.887 529.679 514.926L530.956 513.386ZM529.376 512.842C528.8 512.842 528.244 513.003 527.782 513.383L529.049 514.93C529.097 514.89 529.182 514.842 529.376 514.842V512.842ZM527.777 513.386C527.367 513.726 527.083 514.167 526.906 514.665L528.789 515.337C528.864 515.127 528.959 515.004 529.054 514.926L527.777 513.386ZM526.904 514.67C526.738 515.143 526.663 515.65 526.663 516.178H528.663C528.663 515.838 528.711 515.56 528.791 515.332L526.904 514.67ZM526.663 516.178C526.663 516.704 526.738 517.209 526.904 517.682L528.791 517.02C528.711 516.791 528.663 516.514 528.663 516.178H526.663ZM526.906 517.689C527.085 518.185 527.369 518.622 527.777 518.961L529.054 517.421C528.957 517.341 528.863 517.218 528.788 517.012L526.906 517.689ZM527.787 518.969C528.25 519.343 528.803 519.5 529.376 519.5V517.5C529.178 517.5 529.091 517.452 529.043 517.413L527.787 518.969ZM535.475 519.382L534.961 520.239L535.475 519.382ZM534.293 518.103L533.401 518.554L533.403 518.558L534.293 518.103ZM534.293 514.258L533.402 513.804L533.4 513.808L534.293 514.258ZM535.475 512.974L535.99 513.832L535.475 512.974ZM539.076 512.974L538.561 513.832V513.832L539.076 512.974ZM540.253 514.258L539.36 514.707L539.362 514.711L540.253 514.258ZM540.253 518.103L539.363 517.648L539.361 517.652L540.253 518.103ZM539.076 519.382L538.561 518.524L539.076 519.382ZM538.226 518.191L538.859 518.965L538.865 518.961L538.226 518.191ZM538.79 517.351L537.849 517.012L537.846 517.02L538.79 517.351ZM538.79 515.001L537.845 515.329L537.849 515.339L538.79 515.001ZM538.226 514.156L538.865 513.386V513.386L538.226 514.156ZM536.324 514.156L535.691 513.382L535.686 513.386L536.324 514.156ZM535.757 515.001L534.815 514.665L534.813 514.67L535.757 515.001ZM535.757 517.351L534.813 517.682L534.816 517.689L535.757 517.351ZM536.324 518.191L535.686 518.961L535.696 518.969L536.324 518.191ZM537.275 518.839C536.733 518.839 536.317 518.721 535.99 518.524L534.961 520.239C535.648 520.652 536.433 520.839 537.275 520.839V518.839ZM535.99 518.524C535.649 518.32 535.382 518.036 535.184 517.648L533.403 518.558C533.765 519.266 534.286 519.835 534.961 520.239L535.99 518.524ZM535.186 517.652C534.992 517.269 534.878 516.788 534.878 516.183H532.878C532.878 517.042 533.041 517.842 533.401 518.554L535.186 517.652ZM534.878 516.183C534.878 515.577 534.992 515.094 535.187 514.707L533.4 513.808C533.041 514.523 532.878 515.323 532.878 516.183H534.878ZM535.185 514.711C535.383 514.32 535.65 514.035 535.99 513.832L534.961 512.117C534.284 512.522 533.763 513.094 533.402 513.804L535.185 514.711ZM535.99 513.832C536.317 513.635 536.733 513.517 537.275 513.517V511.517C536.433 511.517 535.648 511.704 534.961 512.117L535.99 513.832ZM537.275 513.517C537.818 513.517 538.234 513.635 538.561 513.832L539.59 512.117C538.903 511.704 538.118 511.517 537.275 511.517V513.517ZM538.561 513.832C538.9 514.035 539.164 514.318 539.36 514.707L541.147 513.808C540.788 513.096 540.268 512.523 539.59 512.117L538.561 513.832ZM539.362 514.711C539.558 515.098 539.673 515.579 539.673 516.183H541.673C541.673 515.322 541.508 514.519 541.145 513.804L539.362 514.711ZM539.673 516.183C539.673 516.787 539.558 517.265 539.363 517.648L541.144 518.558C541.508 517.845 541.673 517.043 541.673 516.183H539.673ZM539.361 517.652C539.166 518.038 538.901 518.32 538.561 518.524L539.59 520.239C540.266 519.834 540.787 519.264 541.146 518.554L539.361 517.652ZM538.561 518.524C538.234 518.721 537.818 518.839 537.275 518.839V520.839C538.118 520.839 538.903 520.652 539.59 520.239L538.561 518.524ZM537.285 519.5C537.854 519.5 538.402 519.339 538.859 518.965L537.594 517.416C537.547 517.455 537.467 517.5 537.285 517.5V519.5ZM538.865 518.961C539.275 518.621 539.558 518.18 539.733 517.682L537.846 517.02C537.775 517.223 537.683 517.343 537.588 517.421L538.865 518.961ZM539.731 517.689C539.901 517.214 539.979 516.707 539.979 516.178H537.979C537.979 516.511 537.93 516.785 537.849 517.012L539.731 517.689ZM539.979 516.178C539.979 515.647 539.902 515.138 539.731 514.662L537.849 515.339C537.93 515.565 537.979 515.841 537.979 516.178H539.979ZM539.734 514.672C539.56 514.171 539.277 513.728 538.865 513.386L537.588 514.926C537.681 515.003 537.773 515.123 537.845 515.329L539.734 514.672ZM538.865 513.386C538.407 513.007 537.858 512.842 537.285 512.842V514.842C537.463 514.842 537.541 514.887 537.588 514.926L538.865 513.386ZM537.285 512.842C536.709 512.842 536.154 513.003 535.691 513.383L536.958 514.93C537.006 514.89 537.091 514.842 537.285 514.842V512.842ZM535.686 513.386C535.276 513.726 534.992 514.167 534.815 514.665L536.699 515.337C536.773 515.127 536.868 515.004 536.963 514.926L535.686 513.386ZM534.813 514.67C534.647 515.143 534.572 515.65 534.572 516.178H536.572C536.572 515.838 536.62 515.56 536.7 515.332L534.813 514.67ZM534.572 516.178C534.572 516.704 534.647 517.209 534.813 517.682L536.7 517.02C536.62 516.791 536.572 516.514 536.572 516.178H534.572ZM534.816 517.689C534.994 518.185 535.278 518.622 535.686 518.961L536.963 517.421C536.866 517.341 536.772 517.218 536.698 517.012L534.816 517.689ZM535.696 518.969C536.159 519.343 536.713 519.5 537.285 519.5V517.5C537.088 517.5 537.001 517.452 536.953 517.413L535.696 518.969ZM543.615 517.475L542.615 517.478L542.621 520.007L544.346 518.157L543.615 517.475ZM543.61 515.458V514.458H542.608L542.61 515.46L543.61 515.458ZM543.878 515.458V516.458H544.325L544.623 516.125L543.878 515.458ZM546.427 512.61V511.61H545.979L545.681 511.943L546.427 512.61ZM548.379 512.61L549.123 513.278L550.622 511.61H548.379V512.61ZM545.245 516.1V517.1H545.691L545.989 516.768L545.245 516.1ZM544.898 516.1V515.1H544.464L544.167 515.417L544.898 516.1ZM542.092 519.7H541.092V520.7H542.092V519.7ZM542.092 510.246V509.246H541.092V510.246H542.092ZM543.763 510.246H544.763V509.246H543.763V510.246ZM543.763 519.7V520.7H544.763V519.7H543.763ZM546.542 519.7L545.729 520.282L546.028 520.7H546.542V519.7ZM544.234 516.474L543.511 515.782L542.938 516.381L543.42 517.055L544.234 516.474ZM545.36 515.296L546.171 514.711L545.468 513.737L544.638 514.605L545.36 515.296ZM548.541 519.7V520.7H550.497L549.352 519.115L548.541 519.7ZM544.615 517.473L544.61 515.456L542.61 515.46L542.615 517.478L544.615 517.473ZM543.61 516.458H543.878V514.458H543.61V516.458ZM544.623 516.125L547.172 513.276L545.681 511.943L543.133 514.791L544.623 516.125ZM546.427 513.61H548.379V511.61H546.427V513.61ZM547.635 511.941L544.501 515.431L545.989 516.768L549.123 513.278L547.635 511.941ZM545.245 515.1H544.898V517.1H545.245V515.1ZM544.167 515.417L542.884 516.793L544.346 518.157L545.63 516.782L544.167 515.417ZM543.092 519.7V510.246H541.092V519.7H543.092ZM542.092 511.246H543.763V509.246H542.092V511.246ZM542.763 510.246V519.7H544.763V510.246H542.763ZM543.763 518.7H542.092V520.7H543.763V518.7ZM547.355 519.119L545.047 515.892L543.42 517.055L545.729 520.282L547.355 519.119ZM544.956 517.165L546.083 515.988L544.638 514.605L543.511 515.782L544.956 517.165ZM544.549 515.882L547.73 520.286L549.352 519.115L546.171 514.711L544.549 515.882ZM548.541 518.7H546.542V520.7H548.541V518.7ZM552.791 519.7H551.791V520.7H552.791V519.7ZM552.791 510.246V509.246H551.791V510.246H552.791ZM558.165 510.652L557.683 511.528L557.685 511.53L558.165 510.652ZM559.287 511.769L558.404 512.239L558.408 512.246L559.287 511.769ZM559.287 514.992L560.166 515.468L559.287 514.992ZM558.156 516.104L558.629 516.985L558.633 516.983L558.156 516.104ZM553.964 516.506H552.964V517.506H553.964V516.506ZM553.964 515.098V514.098H552.964V515.098H553.964ZM557.126 514.876L557.605 515.754L557.126 514.876ZM557.726 514.267L556.836 513.811L556.832 513.82L557.726 514.267ZM557.726 512.49L556.834 512.941L556.839 512.95L557.726 512.49ZM557.122 511.894L556.651 512.776L556.663 512.782L557.122 511.894ZM554.504 511.677V510.677H553.504V511.677H554.504ZM554.504 519.7V520.7H555.504V519.7H554.504ZM553.791 519.7V510.246H551.791V519.7H553.791ZM552.791 511.246H556.337V509.246H552.791V511.246ZM556.337 511.246C556.943 511.246 557.375 511.359 557.683 511.528L558.647 509.776C557.97 509.404 557.184 509.246 556.337 509.246V511.246ZM557.685 511.53C558.019 511.712 558.248 511.947 558.404 512.239L560.17 511.299C559.821 510.644 559.302 510.134 558.645 509.775L557.685 511.53ZM558.408 512.246C558.575 512.554 558.67 512.922 558.67 513.376H560.67C560.67 512.63 560.51 511.927 560.166 511.292L558.408 512.246ZM558.67 513.376C558.67 513.838 558.574 514.209 558.408 514.515L560.166 515.468C560.511 514.833 560.67 514.126 560.67 513.376H558.67ZM558.408 514.515C558.25 514.805 558.018 515.041 557.678 515.225L558.633 516.983C559.291 516.626 559.813 516.12 560.166 515.468L558.408 514.515ZM557.683 515.223C557.366 515.394 556.924 515.506 556.314 515.506V517.506C557.162 517.506 557.949 517.35 558.629 516.985L557.683 515.223ZM556.314 515.506H553.964V517.506H556.314V515.506ZM554.964 516.506V515.098H552.964V516.506H554.964ZM553.964 516.098H556.083V514.098H553.964V516.098ZM556.083 516.098C556.615 516.098 557.143 516.006 557.605 515.754L556.647 513.998C556.568 514.041 556.4 514.098 556.083 514.098V516.098ZM557.605 515.754C558.043 515.516 558.394 515.168 558.621 514.714L556.832 513.82C556.8 513.883 556.752 513.941 556.647 513.998L557.605 515.754ZM558.617 514.723C558.832 514.303 558.925 513.845 558.925 513.376H556.925C556.925 513.578 556.886 513.714 556.836 513.811L558.617 514.723ZM558.925 513.376C558.925 512.907 558.832 512.449 558.614 512.029L556.839 512.95C556.886 513.041 556.925 513.174 556.925 513.376H558.925ZM558.619 512.038C558.387 511.58 558.026 511.236 557.581 511.006L556.663 512.782C556.765 512.835 556.807 512.888 556.834 512.941L558.619 512.038ZM557.593 511.012C557.131 510.765 556.605 510.677 556.074 510.677V512.677C556.398 512.677 556.57 512.733 556.651 512.776L557.593 511.012ZM556.074 510.677H554.504V512.677H556.074V510.677ZM553.504 511.677V519.7H555.504V511.677H553.504ZM554.504 518.7H552.791V520.7H554.504V518.7ZM561.084 519.7H560.084V520.7H561.084V519.7ZM561.084 512.61V511.61H560.084V512.61H561.084ZM562.704 512.61H563.704V511.61H562.704V512.61ZM562.704 513.791H561.704V514.791H562.704V513.791ZM562.778 513.791V514.791H563.511L563.732 514.092L562.778 513.791ZM563.443 512.845L564.02 513.662L564.021 513.661L563.443 512.845ZM564.837 512.522L564.756 513.519L564.77 513.52L564.784 513.52L564.837 512.522ZM565.128 512.554H566.128V511.734L565.324 511.574L565.128 512.554ZM565.128 514.091L564.799 515.036L566.128 515.498V514.091H565.128ZM564.791 514.027L564.649 515.017L564.661 515.018L564.672 515.02L564.791 514.027ZM563.531 514.193L564.005 515.073L564.009 515.071L563.531 514.193ZM562.755 519.7V520.7H563.755V519.7H562.755ZM562.084 519.7V512.61H560.084V519.7H562.084ZM561.084 513.61H562.704V511.61H561.084V513.61ZM561.704 512.61V513.791H563.704V512.61H561.704ZM562.704 514.791H562.778V512.791H562.704V514.791ZM563.732 514.092C563.803 513.866 563.905 513.743 564.02 513.662L562.866 512.028C562.353 512.39 562.011 512.898 561.824 513.49L563.732 514.092ZM564.021 513.661C564.161 513.562 564.319 513.508 564.528 513.508V511.508C563.924 511.508 563.359 511.679 562.865 512.029L564.021 513.661ZM564.528 513.508C564.588 513.508 564.663 513.511 564.756 513.519L564.918 511.525C564.783 511.514 564.652 511.508 564.528 511.508V513.508ZM564.784 513.52C564.874 513.525 564.919 513.532 564.932 513.535L565.324 511.574C565.183 511.545 565.034 511.531 564.89 511.523L564.784 513.52ZM564.128 512.554V514.091H566.128V512.554H564.128ZM565.456 513.147C565.278 513.085 565.076 513.054 564.91 513.034L564.672 515.02C564.733 515.027 564.775 515.034 564.802 515.039C564.815 515.041 564.822 515.043 564.823 515.043C564.824 515.044 564.815 515.041 564.799 515.036L565.456 513.147ZM564.932 513.037C564.738 513.009 564.545 512.994 564.352 512.994V514.994C564.443 514.994 564.542 515.001 564.649 515.017L564.932 513.037ZM564.352 512.994C563.898 512.994 563.457 513.095 563.052 513.315L564.009 515.071C564.091 515.027 564.197 514.994 564.352 514.994V512.994ZM563.056 513.313C562.66 513.526 562.338 513.831 562.105 514.219L563.82 515.248C563.865 515.173 563.921 515.119 564.005 515.073L563.056 513.313ZM562.105 514.219C561.863 514.623 561.755 515.071 561.755 515.532H563.755C563.755 515.389 563.786 515.305 563.82 515.248L562.105 514.219ZM561.755 515.532V519.7H563.755V515.532H561.755ZM562.755 518.7H561.084V520.7H562.755V518.7ZM567.239 519.382L566.724 520.239L567.239 519.382ZM566.057 518.103L565.164 518.554L565.167 518.558L566.057 518.103ZM566.057 514.258L565.165 513.804L565.163 513.808L566.057 514.258ZM567.239 512.974L567.753 513.832L567.239 512.974ZM570.84 512.974L570.325 513.832V513.832L570.84 512.974ZM572.017 514.258L571.123 514.707L571.125 514.711L572.017 514.258ZM572.017 518.103L571.126 517.648L571.124 517.652L572.017 518.103ZM570.84 519.382L570.325 518.524L570.84 519.382ZM569.99 518.191L570.623 518.965L570.628 518.961L569.99 518.191ZM570.553 517.351L569.612 517.012L569.61 517.02L570.553 517.351ZM570.553 515.001L569.609 515.329L569.612 515.339L570.553 515.001ZM569.99 514.156L570.628 513.386V513.386L569.99 514.156ZM568.088 514.156L567.454 513.382L567.45 513.386L568.088 514.156ZM567.52 515.001L566.578 514.665L566.577 514.67L567.52 515.001ZM567.52 517.351L566.577 517.682L566.579 517.689L567.52 517.351ZM568.088 518.191L567.45 518.961L567.46 518.969L568.088 518.191ZM569.039 518.839C568.497 518.839 568.081 518.721 567.753 518.524L566.724 520.239C567.412 520.652 568.197 520.839 569.039 520.839V518.839ZM567.753 518.524C567.412 518.32 567.146 518.036 566.947 517.648L565.167 518.558C565.528 519.266 566.05 519.835 566.724 520.239L567.753 518.524ZM566.949 517.652C566.755 517.269 566.641 516.788 566.641 516.183H564.641C564.641 517.042 564.804 517.842 565.165 518.554L566.949 517.652ZM566.641 516.183C566.641 515.577 566.755 515.094 566.95 514.707L565.163 513.808C564.804 514.523 564.641 515.323 564.641 516.183H566.641ZM566.948 514.711C567.147 514.32 567.414 514.035 567.753 513.832L566.724 512.117C566.048 512.522 565.527 513.094 565.165 513.804L566.948 514.711ZM567.753 513.832C568.081 513.635 568.497 513.517 569.039 513.517V511.517C568.197 511.517 567.412 511.704 566.724 512.117L567.753 513.832ZM569.039 513.517C569.581 513.517 569.997 513.635 570.325 513.832L571.354 512.117C570.666 511.704 569.882 511.517 569.039 511.517V513.517ZM570.325 513.832C570.664 514.035 570.928 514.318 571.123 514.707L572.91 513.808C572.552 513.096 572.031 512.523 571.354 512.117L570.325 513.832ZM571.125 514.711C571.322 515.098 571.437 515.579 571.437 516.183H573.437C573.437 515.322 573.272 514.519 572.908 513.804L571.125 514.711ZM571.437 516.183C571.437 516.787 571.322 517.265 571.126 517.648L572.907 518.558C573.272 517.845 573.437 517.043 573.437 516.183H571.437ZM571.124 517.652C570.929 518.038 570.665 518.32 570.325 518.524L571.354 520.239C572.03 519.834 572.55 519.264 572.909 518.554L571.124 517.652ZM570.325 518.524C569.997 518.721 569.581 518.839 569.039 518.839V520.839C569.882 520.839 570.666 520.652 571.354 520.239L570.325 518.524ZM569.048 519.5C569.618 519.5 570.165 519.339 570.623 518.965L569.357 517.416C569.31 517.455 569.23 517.5 569.048 517.5V519.5ZM570.628 518.961C571.038 518.621 571.322 518.18 571.497 517.682L569.61 517.02C569.538 517.223 569.447 517.343 569.352 517.421L570.628 518.961ZM571.494 517.689C571.665 517.214 571.743 516.707 571.743 516.178H569.743C569.743 516.511 569.694 516.785 569.612 517.012L571.494 517.689ZM571.743 516.178C571.743 515.647 571.665 515.138 571.494 514.662L569.612 515.339C569.694 515.565 569.743 515.841 569.743 516.178H571.743ZM571.498 514.672C571.324 514.171 571.04 513.728 570.628 513.386L569.352 514.926C569.445 515.003 569.537 515.123 569.609 515.329L571.498 514.672ZM570.628 513.386C570.171 513.007 569.621 512.842 569.048 512.842V514.842C569.227 514.842 569.305 514.887 569.352 514.926L570.628 513.386ZM569.048 512.842C568.473 512.842 567.917 513.003 567.454 513.383L568.722 514.93C568.77 514.89 568.855 514.842 569.048 514.842V512.842ZM567.45 513.386C567.04 513.726 566.756 514.167 566.578 514.665L568.462 515.337C568.537 515.127 568.632 515.004 568.727 514.926L567.45 513.386ZM566.577 514.67C566.411 515.143 566.336 515.65 566.336 516.178H568.336C568.336 515.838 568.384 515.56 568.464 515.332L566.577 514.67ZM566.336 516.178C566.336 516.704 566.411 517.209 566.577 517.682L568.464 517.02C568.384 516.791 568.336 516.514 568.336 516.178H566.336ZM566.579 517.689C566.758 518.185 567.042 518.622 567.45 518.961L568.727 517.421C568.63 517.341 568.535 517.218 568.461 517.012L566.579 517.689ZM567.46 518.969C567.923 519.343 568.476 519.5 569.048 519.5V517.5C568.851 517.5 568.764 517.452 568.716 517.413L567.46 518.969Z" fill="#16191D" mask="url(#path-6-outside-1_46_153)"/>
<path d="M0.5 525.943C0.5 525.114 1.17157 524.443 2 524.443H1060.42C1061.25 524.443 1061.92 525.114 1061.92 525.943V540.59H0.5V525.943Z" fill="#A3ACB1"/>
<path d="M0.5 525.943C0.5 525.114 1.17157 524.443 2 524.443H1060.42C1061.25 524.443 1061.92 525.114 1061.92 525.943V540.59H0.5V525.943Z" fill="url(#paint0_linear_46_153)"/>
<path d="M0.5 525.943C0.5 525.114 1.17157 524.443 2 524.443H1060.42C1061.25 524.443 1061.92 525.114 1061.92 525.943V540.59H0.5V525.943Z" stroke="#16191D"/>
<path d="M18.0196 544.199L5.02855 541.59H1056.89L1035.19 545.545C1011.55 549.854 987.575 552.021 963.549 552.021H96.6883C70.2713 552.021 43.9194 549.401 18.0196 544.199Z" fill="#647279"/>
<path d="M18.0196 544.199L5.02855 541.59H1056.89L1035.19 545.545C1011.55 549.854 987.575 552.021 963.549 552.021H96.6883C70.2713 552.021 43.9194 549.401 18.0196 544.199Z" fill="url(#paint1_linear_46_153)"/>
<path d="M18.0196 544.199L5.02855 541.59H1056.89L1035.19 545.545C1011.55 549.854 987.575 552.021 963.549 552.021H96.6883C70.2713 552.021 43.9194 549.401 18.0196 544.199Z" stroke="#16191D"/>
<path d="M459.539 536.779C451.587 536.779 445.115 531.337 444.313 524.443H619.161C618.358 531.337 611.887 536.779 603.935 536.779H459.539Z" fill="#96A1A8"/>
<path d="M459.539 536.779C451.587 536.779 445.115 531.337 444.313 524.443H619.161C618.358 531.337 611.887 536.779 603.935 536.779H459.539Z" fill="url(#paint2_linear_46_153)"/>
<path d="M459.539 536.779C451.587 536.779 445.115 531.337 444.313 524.443H619.161C618.358 531.337 611.887 536.779 603.935 536.779H459.539Z" stroke="#16191D"/>
<defs>
<filter id="filter0_f_46_153" x="10.8074" y="509.474" width="1041.86" height="97.5262" filterUnits="userSpaceOnUse" color-interpolation-filters="sRGB">
<feFlood flood-opacity="0" result="BackgroundImageFix"/>
<feBlend mode="normal" in="SourceGraphic" in2="BackgroundImageFix" result="shape"/>
<feGaussianBlur stdDeviation="22" result="effect1_foregroundBlur_46_153"/>
</filter>
<linearGradient id="paint0_linear_46_153" x1="-2.0495e-10" y1="532.516" x2="1062.42" y2="532.516" gradientUnits="userSpaceOnUse">
<stop stop-color="#0D1012"/>
<stop offset="0.0295345" stop-color="#CAD4DB"/>
<stop offset="0.0625" stop-color="#242729"/>
<stop offset="0.133609" stop-color="#A3ACB1"/>
<stop offset="0.865967" stop-color="#A3ACB1"/>
<stop offset="0.941937" stop-color="#242729"/>
<stop offset="0.971275" stop-color="#CAD4DB"/>
<stop offset="0.996436" stop-color="#0D1012"/>
</linearGradient>
<linearGradient id="paint1_linear_46_153" x1="531.21" y1="541.09" x2="531.21" y2="552.521" gradientUnits="userSpaceOnUse">
<stop stop-color="#7A7F83"/>
<stop offset="1" stop-color="#0B0B0E"/>
</linearGradient>
<linearGradient id="paint2_linear_46_153" x1="461.12" y1="532.04" x2="605.516" y2="532.04" gradientUnits="userSpaceOnUse">
<stop stop-color="#3C3C3C"/>
<stop offset="0.317518" stop-color="#3C3C3C" stop-opacity="0"/>
<stop offset="0.660584" stop-color="#3C3C3C" stop-opacity="0"/>
<stop offset="1" stop-color="#444444"/>
</linearGradient>
</defs>
</svg>
