<svg width="573" height="567" viewBox="0 0 573 567" fill="none" xmlns="http://www.w3.org/2000/svg">
<ellipse cx="286.5" cy="283.5" rx="286.5" ry="283.5" fill="#124949"/>
<mask id="mask0_64_196" style="mask-type:luminance" maskUnits="userSpaceOnUse" x="49" y="98" width="514" height="429">
<rect x="49" y="98" width="514" height="429" fill="white"/>
</mask>
<g mask="url(#mask0_64_196)">
<mask id="mask1_64_196" style="mask-type:luminance" maskUnits="userSpaceOnUse" x="43" y="91" width="514" height="429">
<rect x="43" y="91" width="514" height="429" fill="white"/>
</mask>
<g mask="url(#mask1_64_196)">
<ellipse cx="305.329" cy="305.5" rx="216.632" ry="214.5" fill="#CBD0DC"/>
<rect x="292.718" y="211.986" width="132.837" height="203.678" fill="white"/>
<path d="M266.094 336.302H402.295" stroke="black"/>
<path d="M266.094 349.621H402.295" stroke="black"/>
<path d="M266.094 362.94H402.295" stroke="black"/>
<path d="M266.094 376.26H402.295" stroke="black"/>
<ellipse cx="359.137" cy="271.369" rx="34.7511" ry="34.4092" fill="#F2F2F2"/>
<rect opacity="0.7" x="402.295" y="284.411" width="54.9281" height="50.5036" fill="#54849A"/>
<path d="M416.524 308.696L422.803 306.236V307.203L417.668 309.142L422.803 311.086V312.053L416.524 309.588V308.696ZM428.362 304.061H429.178L426.675 311.951H425.859L428.362 304.061ZM438.411 309.599L432.132 312.053V311.086L437.262 309.142L432.132 307.203V306.236L438.411 308.696V309.599Z" fill="white"/>
<rect x="63.1951" y="111.812" width="296.502" height="193.133" stroke="black"/>
<path d="M63.1951 122.08H359.697" stroke="black"/>
<rect x="84.7739" y="139.283" width="89.1192" height="88.2423" stroke="black"/>
<path d="M190.988 147.054H327.189" stroke="black"/>
<path d="M190.988 160.373H327.189" stroke="black"/>
<path d="M190.988 173.692H327.189" stroke="black"/>
<path d="M190.988 187.012H327.189" stroke="black"/>
<path opacity="0.44" fill-rule="evenodd" clip-rule="evenodd" d="M129.334 162.592L105.064 204.211H153.603L129.334 162.592Z" fill="#54849A"/>
<ellipse cx="69.6409" cy="117.084" rx="2.52197" ry="2.49715" fill="#AB8DE5"/>
<ellipse cx="78.3281" cy="117.084" rx="2.52197" ry="2.49715" fill="#73E5E2"/>
<ellipse cx="87.0153" cy="117.084" rx="2.52197" ry="2.49715" fill="#50B89D"/>
<path fill-rule="evenodd" clip-rule="evenodd" d="M193.789 269.288L202.197 261.935H193.622L193.789 269.288Z" fill="#AB8DE5"/>
<path fill-rule="evenodd" clip-rule="evenodd" d="M185.383 248.614C185.383 244.706 186.778 241.371 189.569 238.607C192.36 235.844 195.728 234.462 199.675 234.462H236.108C240.054 234.462 243.423 235.844 246.214 238.607C249.005 241.371 250.4 244.706 250.4 248.614C250.4 252.522 249.005 255.858 246.214 258.621C243.423 261.384 240.054 262.766 236.108 262.766H199.675C195.728 262.766 192.36 261.384 189.569 258.621C186.778 255.858 185.383 252.522 185.383 248.614Z" fill="#18526D"/>
<ellipse cx="209.204" cy="248.614" rx="2.52197" ry="2.49715" fill="white"/>
<ellipse cx="217.891" cy="248.614" rx="2.52196" ry="2.49715" fill="white"/>
<ellipse cx="226.579" cy="248.614" rx="2.52196" ry="2.49715" fill="white"/>
<path fill-rule="evenodd" clip-rule="evenodd" d="M460.026 186.04L451.618 178.687H460.193L460.026 186.04Z" fill="#98B9F2"/>
<path fill-rule="evenodd" clip-rule="evenodd" d="M468.433 165.367C468.433 169.275 467.038 172.611 464.247 175.374C461.457 178.137 458.088 179.519 454.141 179.519H417.709C413.762 179.519 410.393 178.137 407.602 175.374C404.812 172.611 403.416 169.275 403.416 165.367C403.416 161.459 404.812 158.124 407.602 155.361C410.393 152.597 413.762 151.216 417.709 151.216L454.141 151.216C458.088 151.216 461.457 152.597 464.247 155.361C467.038 158.124 468.433 161.459 468.433 165.367Z" fill="#54849A"/>
<ellipse cx="444.612" cy="165.367" rx="2.52197" ry="2.49715" fill="white"/>
<ellipse cx="435.924" cy="165.367" rx="2.52197" ry="2.49715" fill="white"/>
<ellipse cx="427.237" cy="165.367" rx="2.52197" ry="2.49715" fill="white"/>
<ellipse cx="72.7242" cy="243.898" rx="3.92387" ry="3.88526" fill="#F98B67"/>
<path fill-rule="evenodd" clip-rule="evenodd" d="M411.935 421.353V420.798L410.59 419.134L407.479 415.393L404.172 411.431C404.172 411.431 400.988 409.25 400.17 408.872C397.251 407.377 394.029 406.555 390.743 406.466C388.586 406.466 380.519 406.789 380.504 408.131C380.504 410.123 391.801 417.666 400.082 421.329C403.718 421.353 411.935 421.353 411.935 421.353Z" fill="#1F161E"/>
<path fill-rule="evenodd" clip-rule="evenodd" d="M410.225 421.353C398.729 412.595 375.262 364.828 381.281 347.124C394.094 353.589 408.152 375.883 414.782 394.708C415.139 395.934 415.425 397.179 415.64 398.437L418.331 410.646L418.981 421.375L410.225 421.353Z" fill="#54849A"/>
<path fill-rule="evenodd" clip-rule="evenodd" d="M418.073 421.353C414.194 418.234 412.956 408.999 412.922 405.553C412.86 399.122 413.858 394.381 419.413 387.306C424.968 380.23 423.488 368.492 430.864 360.572C438.24 352.652 443.128 350.444 451.88 350.444C460.633 350.444 463.421 364.496 463.37 368.031C463.269 382.293 454.195 384.314 448.657 391.118C444.639 396.057 444.325 400.097 443.108 402.406C436.585 414.849 431.282 419.528 427.358 421.354" fill="#18526D"/>
<path d="M420.214 420.32C420.325 395.995 446.211 359.454 451.747 353.983" stroke="white" stroke-width="0.4" stroke-linecap="round" stroke-linejoin="round"/>
<path d="M421.608 409.265C418.744 406.174 416.142 397.411 416.53 395.135" stroke="white" stroke-width="0.4" stroke-linecap="round" stroke-linejoin="round"/>
<path d="M414.273 419.254C410.214 412.133 390.961 377.413 383.781 351.84" stroke="white" stroke-width="0.4" stroke-linecap="round" stroke-linejoin="round"/>
<path fill-rule="evenodd" clip-rule="evenodd" d="M427.382 421.352H439.444L429.361 458.536H402.379L392.453 421.352H427.382" fill="#B37361"/>
<path d="M384.448 408.882C390.328 409.281 397.726 409.548 402.945 413.071" stroke="white" stroke-width="0.4" stroke-linecap="round" stroke-linejoin="round"/>
<path fill-rule="evenodd" clip-rule="evenodd" d="M477.652 269.149C476.234 275.848 465.932 358.94 469.3 378.786C472.667 398.632 527.592 440.216 529.996 440.944C532.798 438.908 536.92 432.23 536.92 432.23C536.92 432.23 496.649 386.007 495.881 384.153C495.113 382.299 504.703 275.255 504.703 275.255L477.652 269.149Z" fill="#636161"/>
<path fill-rule="evenodd" clip-rule="evenodd" d="M543.237 284.272L502.147 450.217H488.309L502.333 277.102L543.237 284.272Z" fill="#AAAAAA"/>
<path fill-rule="evenodd" clip-rule="evenodd" d="M514.056 189.26C519.728 189.26 549.318 190.209 554.664 200.52C560.01 210.831 554.973 258.498 551.649 260.341C549.856 261.334 549.367 260.368 548.846 262.386C548.325 264.403 543.241 284.268 543.241 284.268C540.012 284.357 492.947 277.336 477.663 269.129C477.752 266.843 478.492 260.916 478.492 260.46C476.464 261.281 474.008 261.453 473.335 260.46C467.372 251.519 476.261 204.907 482.64 195.527C485.35 191.508 504.945 189.287 514.056 189.26Z" fill="#18526D"/>
<path fill-rule="evenodd" clip-rule="evenodd" d="M533.536 261.629C534.925 261.629 546.893 269.954 545.866 274.044C546.707 270.759 549.353 260.608 549.353 260.608C548.216 260.824 534.556 261.646 533.536 261.629Z" fill="#1F161E"/>
<path fill-rule="evenodd" clip-rule="evenodd" d="M521.378 194.699C521.378 196.503 506.968 196.503 506.968 194.699V176.384H521.378V194.699Z" fill="#F8CDBA"/>
<path fill-rule="evenodd" clip-rule="evenodd" d="M513.111 180.718C514.232 180.718 521.378 183.846 521.378 185.591V176.384C519.596 176.384 513.111 180.718 513.111 180.718Z" fill="#1F161E"/>
<ellipse cx="511.138" cy="168.176" rx="14.0178" ry="13.8799" fill="#F8CDBA"/>
<path fill-rule="evenodd" clip-rule="evenodd" d="M506.397 147.886C499.2 147.886 494.716 152.359 494.716 158.092C494.716 162.859 495.882 165.557 497.255 166.239C498.124 161.611 500.013 159.468 501.576 158.547C502.791 159.468 504.872 161.7 507.65 162.388C510.429 163.076 517.666 162.942 523.512 167.15C525.423 165.43 527.329 163.192 527.329 160.557C527.329 157.922 526.152 154.614 519.23 152.703C514.659 151.443 514.02 147.886 506.397 147.886Z" fill="#1F161E"/>
<ellipse cx="498.04" cy="171.034" rx="2.45515" ry="1.26542" fill="#FA9E9F"/>
<ellipse cx="513.482" cy="171.034" rx="2.45515" ry="1.26542" fill="#FA9E9F"/>
<path d="M504.038 168.409C503.578 169.059 501.235 171.783 503.707 172.883" stroke="#1F161E" stroke-linecap="round"/>
<path d="M508.655 176.062C509.67 175.815 510.554 175.199 511.132 174.336" stroke="#1F161E" stroke-linecap="round"/>
<ellipse cx="524.097" cy="169.774" rx="3.23992" ry="3.20805" fill="#F8CDBA"/>
<path d="M533.86 216.571C533.607 219.634 532.621 234.774 532.991 236.767C528.289 238.387 485.232 258.605 477.783 260.824" stroke="#1F161E" stroke-linecap="round"/>
<path d="M483.853 211.792C482.861 215.221 479.521 230.789 481.869 238.014" stroke="#1F161E" stroke-linecap="round"/>
<path d="M494.845 253.743C497.088 255.307 518.576 264.721 548.289 261.168" stroke="#1F161E" stroke-linecap="round"/>
<path fill-rule="evenodd" clip-rule="evenodd" d="M492.79 238.02C494.23 238.248 489.533 234.532 486.871 235.917C484.209 237.301 480.622 243.554 481.356 245.002C481.556 245.535 481.989 245.949 482.534 246.128C483.079 246.307 483.676 246.232 484.158 245.923C484.88 245.463 490.277 237.62 492.79 238.02Z" fill="#F8CDBA"/>
<path fill-rule="evenodd" clip-rule="evenodd" d="M536.461 432.913C537.229 433.467 544.039 438.03 544.095 440.904C544.151 443.779 537.75 453.308 536.461 453.58C535.172 453.852 534.252 452.776 534.252 450.85C534.252 448.924 536.682 445.55 536.36 444.051C536.038 442.552 532.891 439.811 531.276 439.762" fill="#EBEBEB" fill-opacity="0.25098"/>
<path fill-rule="evenodd" clip-rule="evenodd" d="M500.832 450.217C500.832 451.54 501.605 459.829 500.058 460.6C498.51 461.371 481.438 461.827 480.664 461.061C479.89 460.294 479.42 458.68 480.104 458.219C480.788 457.759 487.393 456.449 488.287 455.839C489.606 454.274 490.214 452.24 489.969 450.217" fill="#EBEBEB" fill-opacity="0.25098"/>
<rect x="57.579" y="388.658" width="108.389" height="54.4381" fill="#B37361"/>
<path fill-rule="evenodd" clip-rule="evenodd" d="M219.366 363.145C219.838 365.92 227.83 429.359 229.125 430.408C230.42 431.457 244.168 433.782 245.345 432.039C245.581 429.264 245.905 385.021 246.634 381.064" fill="#1F161E"/>
<path fill-rule="evenodd" clip-rule="evenodd" d="M64.7257 349.909C59.1825 347.206 70.7403 400.784 101.158 400.784C131.576 400.784 182.777 354.904 191.067 354.904C209.367 354.904 252.688 390.479 256.084 390.479C258.685 387.903 263.886 383.398 263.886 381.599C263.886 379.801 222.409 312.226 191.374 312.226C179.342 312.242 77.242 356.03 64.7257 349.909Z" fill="black"/>
<path fill-rule="evenodd" clip-rule="evenodd" d="M81.8438 350.822C87.9252 349.456 95.4923 345.921 102.19 342.308C83.9673 348.202 69.0359 352.02 64.7257 349.911C61.7883 348.48 63.6494 362.82 70.5569 376.634C69.3044 373.961 67.5223 354.06 81.8438 350.822Z" fill="#1F161E"/>
<path fill-rule="evenodd" clip-rule="evenodd" d="M95.2494 256.827C100.042 256.954 124.989 256.226 131.828 262.677C136.899 267.46 152.673 308.601 155.105 323.047C144.512 328.381 68.0994 364.604 44.4578 348.677C43.9366 336.3 46.3638 287.102 61.8297 261.3C67.4835 257.57 90.6428 256.71 95.2494 256.827Z" fill="white"/>
<path fill-rule="evenodd" clip-rule="evenodd" d="M104.969 245.056H90.3912V260.562C90.3912 264.447 104.969 264.411 104.969 260.562V245.056Z" fill="#F8CDBA"/>
<path fill-rule="evenodd" clip-rule="evenodd" d="M90.3961 254.418C90.3961 252.698 95.2104 248.375 98.1867 248.524C98.2596 246.609 91.3837 243.857 91.3837 243.857L90.3912 246.503L90.3961 254.418Z" fill="#1F161E"/>
<path fill-rule="evenodd" clip-rule="evenodd" d="M120.231 245.056C120.558 243.554 120.724 242.022 120.724 240.485C120.724 229.041 111.694 219.762 100.546 219.762C89.3976 219.762 80.3678 229.041 80.3678 240.485C80.3678 242.016 80.5327 243.548 80.8598 245.05L120.231 245.056Z" fill="#1F161E"/>
<path fill-rule="evenodd" clip-rule="evenodd" d="M114.912 231.087C112.44 230.715 109.974 228.789 108.254 227.53C98.4455 234.645 92.1624 234.735 91.4833 234.735C90.8043 234.735 88.0418 238.665 86.7698 239.109L86.6581 239.043C87.6717 244.699 91.8278 249.302 97.3918 250.93C102.956 252.558 108.971 250.931 112.927 246.729C116.882 242.526 118.099 236.471 116.068 231.089C115.684 231.136 115.297 231.136 114.914 231.089L114.912 231.087Z" fill="#F8CDBA"/>
<ellipse cx="89.6174" cy="216.453" rx="5.95262" ry="5.89405" fill="#1F161E"/>
<path d="M92.2681 234.422C90.9289 234.481 89.8735 235.573 89.8735 236.9C89.8735 238.228 90.9289 239.32 92.2681 239.378" stroke="#1F161E" stroke-linecap="round"/>
<path d="M111.348 234.739C112.077 235.709 113.971 237.414 111.348 239.217" stroke="#1F161E" stroke-linecap="round"/>
<path d="M103.395 240.516C103.328 241.788 104.088 242.96 105.284 243.429" stroke="#1F161E" stroke-linecap="round"/>
<ellipse cx="98.5124" cy="239.501" rx="2.30937" ry="1.18723" fill="#FA9E9F"/>
<ellipse cx="115.68" cy="239.501" rx="2.30937" ry="1.18723" fill="#FA9E9F"/>
<path fill-rule="evenodd" clip-rule="evenodd" d="M131.302 299.71L146.878 295.741C148.375 298.261 155.661 323.018 155.661 323.018L131.617 333.054C131.93 328.364 132.876 306.887 131.302 299.71Z" fill="#F8CDBA"/>
<path d="M76.6868 295.831C76.1546 299.985 75.3117 304.094 74.1649 308.124" stroke="#1F161E" stroke-linecap="round"/>
<path d="M131.302 299.712C130.926 296.775 128.729 280.232 124.984 271.524" stroke="#1F161E" stroke-linecap="round"/>
<path fill-rule="evenodd" clip-rule="evenodd" d="M131.302 299.71L146.878 295.741C148.375 298.261 155.661 323.018 155.661 323.018L131.617 333.054C131.93 328.364 132.876 306.887 131.302 299.71Z" fill="#F8CDBA"/>
<path fill-rule="evenodd" clip-rule="evenodd" d="M256.549 389.168C256.897 389.722 261.537 395.361 263.18 395.423C264.822 395.484 274.794 388.796 274.356 387.363C273.919 385.931 267.664 386.864 266.588 386.359C265.001 385.369 263.673 384.02 262.715 382.424" fill="#1F161E"/>
<path fill-rule="evenodd" clip-rule="evenodd" d="M232.027 430.997C231.906 431.613 231.276 438.879 232.413 440.055C233.551 441.231 245.412 443.274 246.107 441.936C246.802 440.599 241.623 436.974 241.225 435.876C240.785 434.075 240.785 432.195 241.225 430.394" fill="#1F161E"/>
<path fill-rule="evenodd" clip-rule="evenodd" d="M213.425 324.574H160.643L173.209 291.602H225.991L213.425 324.574Z" fill="#969696"/>
<rect x="116.662" y="323.331" width="52.7815" height="1.24256" fill="#969696"/>
<path fill-rule="evenodd" clip-rule="evenodd" d="M74.1649 308.129C73.1505 311.881 68.2232 327.977 70.2301 330.751C72.237 333.524 122.49 327.237 135.937 323.092C139.362 321.982 141.901 319.074 143.419 318.697C147.459 318.018 151.365 320.464 152.477 324.368C147.112 326.943 69.5802 366.136 44.4601 348.694C39.7126 345.326 48.0414 304.256 48.4229 302.186C52.6638 302.691 74.1649 308.129 74.1649 308.129Z" fill="#F8CDBA"/>
<path d="M132.02 324.092C133.533 323.731 134.856 323.387 135.943 323.053C139.368 321.943 141.907 319.036 143.425 318.658C147.465 317.98 151.371 320.425 152.483 324.33" stroke="#1F161E" stroke-linecap="round"/>
</g>
</g>
</svg>
