<svg width="514" height="429" viewBox="0 0 514 429" fill="none" xmlns="http://www.w3.org/2000/svg">
<mask id="mask0_31_669" style="mask-type:luminance" maskUnits="userSpaceOnUse" x="0" y="0" width="514" height="429">
<rect width="514" height="429" fill="white"/>
</mask>
<g mask="url(#mask0_31_669)">
<ellipse cx="262.329" cy="214.5" rx="216.632" ry="214.5" fill="#CBD0DC"/>
<rect x="249.718" y="120.986" width="132.837" height="203.678" fill="white"/>
<path d="M223.094 245.302H359.295" stroke="black"/>
<path d="M223.094 258.621H359.295" stroke="black"/>
<path d="M223.094 271.94H359.295" stroke="black"/>
<path d="M223.094 285.26H359.295" stroke="black"/>
<ellipse cx="316.138" cy="180.369" rx="34.7511" ry="34.4092" fill="#F2F2F2"/>
<rect opacity="0.7" x="359.295" y="193.411" width="54.9281" height="50.5036" fill="#54849A"/>
<path d="M373.524 217.696L379.803 215.236V216.203L374.668 218.142L379.803 220.086V221.053L373.524 218.588V217.696ZM385.362 213.061H386.178L383.675 220.951H382.859L385.362 213.061ZM395.411 218.599L389.132 221.053V220.086L394.262 218.142L389.132 216.203V215.236L395.411 217.696V218.599Z" fill="white"/>
<rect x="20.1952" y="20.812" width="296.502" height="193.133" stroke="black"/>
<path d="M20.1952 31.0796H316.697" stroke="black"/>
<rect x="41.774" y="48.283" width="89.1192" height="88.2423" stroke="black"/>
<path d="M147.988 56.0537H284.189" stroke="black"/>
<path d="M147.988 69.373H284.189" stroke="black"/>
<path d="M147.988 82.6924H284.189" stroke="black"/>
<path d="M147.988 96.0117H284.189" stroke="black"/>
<path opacity="0.44" fill-rule="evenodd" clip-rule="evenodd" d="M86.3336 71.5923L62.0639 113.211H110.603L86.3336 71.5923Z" fill="#54849A"/>
<ellipse cx="26.641" cy="26.0841" rx="2.52197" ry="2.49715" fill="#AB8DE5"/>
<ellipse cx="35.3282" cy="26.0841" rx="2.52197" ry="2.49715" fill="#73E5E2"/>
<ellipse cx="44.0153" cy="26.0841" rx="2.52197" ry="2.49715" fill="#50B89D"/>
<path fill-rule="evenodd" clip-rule="evenodd" d="M150.789 178.288L159.197 170.935H150.622L150.789 178.288Z" fill="#AB8DE5"/>
<path fill-rule="evenodd" clip-rule="evenodd" d="M142.383 157.614C142.383 153.706 143.778 150.371 146.569 147.607C149.36 144.844 152.729 143.462 156.675 143.462H193.108C197.054 143.462 200.423 144.844 203.214 147.607C206.005 150.371 207.4 153.706 207.4 157.614C207.4 161.522 206.005 164.858 203.214 167.621C200.423 170.384 197.054 171.766 193.108 171.766H156.675C152.729 171.766 149.36 170.384 146.569 167.621C143.778 164.858 142.383 161.522 142.383 157.614Z" fill="#18526D"/>
<ellipse cx="166.204" cy="157.614" rx="2.52197" ry="2.49715" fill="white"/>
<ellipse cx="174.892" cy="157.614" rx="2.52196" ry="2.49715" fill="white"/>
<ellipse cx="183.579" cy="157.614" rx="2.52196" ry="2.49715" fill="white"/>
<path fill-rule="evenodd" clip-rule="evenodd" d="M417.026 95.0397L408.618 87.6865H417.194L417.026 95.0397Z" fill="#98B9F2"/>
<path fill-rule="evenodd" clip-rule="evenodd" d="M425.434 74.3673C425.434 78.2752 424.038 81.6108 421.247 84.3741C418.457 87.1374 415.088 88.519 411.141 88.519H374.709C370.762 88.519 367.393 87.1374 364.603 84.3741C361.812 81.6108 360.416 78.2752 360.416 74.3673C360.416 70.4594 361.812 67.1238 364.603 64.3605C367.393 61.5972 370.762 60.2156 374.709 60.2156L411.141 60.2156C415.088 60.2156 418.457 61.5972 421.247 64.3605C424.038 67.1238 425.434 70.4594 425.434 74.3673Z" fill="#54849A"/>
<ellipse cx="401.612" cy="74.3673" rx="2.52197" ry="2.49715" fill="white"/>
<ellipse cx="392.924" cy="74.3673" rx="2.52197" ry="2.49715" fill="white"/>
<ellipse cx="384.237" cy="74.3673" rx="2.52197" ry="2.49715" fill="white"/>
<ellipse cx="29.7242" cy="152.898" rx="3.92387" ry="3.88526" fill="#F98B67"/>
<path fill-rule="evenodd" clip-rule="evenodd" d="M368.935 330.353V329.798L367.59 328.134L364.479 324.393L361.172 320.431C361.172 320.431 357.988 318.25 357.17 317.872C354.251 316.377 351.029 315.555 347.743 315.466C345.586 315.466 337.519 315.789 337.504 317.131C337.504 319.123 348.802 326.666 357.082 330.329C360.718 330.353 368.935 330.353 368.935 330.353Z" fill="#1F161E"/>
<path fill-rule="evenodd" clip-rule="evenodd" d="M367.225 330.353C355.73 321.595 332.262 273.828 338.281 256.124C351.094 262.589 365.152 284.883 371.782 303.708C372.139 304.934 372.425 306.179 372.64 307.437L375.331 319.646L375.981 330.375L367.225 330.353Z" fill="#54849A"/>
<path fill-rule="evenodd" clip-rule="evenodd" d="M375.073 330.353C371.194 327.234 369.956 317.999 369.922 314.553C369.86 308.122 370.858 303.381 376.413 296.306C381.969 289.23 380.488 277.492 387.864 269.572C395.241 261.652 400.128 259.444 408.88 259.444C417.633 259.444 420.421 273.496 420.37 277.031C420.269 291.293 411.195 293.314 405.658 300.118C401.639 305.057 401.326 309.097 400.108 311.406C393.585 323.849 388.282 328.528 384.358 330.354" fill="#18526D"/>
<path d="M377.214 329.32C377.325 304.995 403.211 268.454 408.747 262.983" stroke="white" stroke-width="0.4" stroke-linecap="round" stroke-linejoin="round"/>
<path d="M378.608 318.265C375.744 315.174 373.142 306.411 373.53 304.135" stroke="white" stroke-width="0.4" stroke-linecap="round" stroke-linejoin="round"/>
<path d="M371.273 328.254C367.215 321.133 347.961 286.413 340.781 260.84" stroke="white" stroke-width="0.4" stroke-linecap="round" stroke-linejoin="round"/>
<path fill-rule="evenodd" clip-rule="evenodd" d="M384.382 330.352H396.444L386.361 367.536H359.379L349.453 330.352H384.382" fill="#B37361"/>
<path d="M341.448 317.882C347.328 318.281 354.726 318.548 359.945 322.071" stroke="white" stroke-width="0.4" stroke-linecap="round" stroke-linejoin="round"/>
<path fill-rule="evenodd" clip-rule="evenodd" d="M434.652 178.149C433.234 184.848 422.932 267.94 426.3 287.786C429.667 307.632 484.592 349.216 486.996 349.944C489.798 347.908 493.92 341.23 493.92 341.23C493.92 341.23 453.649 295.007 452.881 293.153C452.114 291.299 461.703 184.255 461.703 184.255L434.652 178.149Z" fill="#636161"/>
<path fill-rule="evenodd" clip-rule="evenodd" d="M500.237 193.272L459.147 359.217H445.309L459.333 186.102L500.237 193.272Z" fill="#AAAAAA"/>
<path fill-rule="evenodd" clip-rule="evenodd" d="M471.056 98.2598C476.728 98.2598 506.317 99.2088 511.664 109.52C517.01 119.831 511.973 167.498 508.649 169.341C506.856 170.334 506.367 169.368 505.846 171.386C505.325 173.403 500.241 193.268 500.241 193.268C497.012 193.357 449.947 186.336 434.663 178.129C434.752 175.843 435.492 169.916 435.492 169.46C433.464 170.281 431.008 170.453 430.335 169.46C424.372 160.519 433.261 113.907 439.64 104.527C442.35 100.508 461.945 98.2874 471.056 98.2598Z" fill="#18526D"/>
<path fill-rule="evenodd" clip-rule="evenodd" d="M490.536 170.629C491.925 170.629 503.893 178.954 502.866 183.044C503.707 179.759 506.353 169.608 506.353 169.608C505.216 169.824 491.556 170.646 490.536 170.629Z" fill="#1F161E"/>
<path fill-rule="evenodd" clip-rule="evenodd" d="M478.378 103.699C478.378 105.503 463.968 105.503 463.968 103.699V85.3843H478.378V103.699Z" fill="#F8CDBA"/>
<path fill-rule="evenodd" clip-rule="evenodd" d="M470.111 89.7182C471.232 89.7182 478.378 92.8457 478.378 94.591V85.3843C476.596 85.3843 470.111 89.7182 470.111 89.7182Z" fill="#1F161E"/>
<ellipse cx="468.138" cy="77.176" rx="14.0178" ry="13.8799" fill="#F8CDBA"/>
<path fill-rule="evenodd" clip-rule="evenodd" d="M463.397 56.886C456.2 56.886 451.716 61.3594 451.716 67.0923C451.716 71.8593 452.882 74.5573 454.255 75.2393C455.124 70.6107 457.013 68.4684 458.576 67.547C459.791 68.4684 461.872 70.6997 464.65 71.3878C467.429 72.0758 474.667 71.9423 480.512 76.1499C482.423 74.4298 484.329 72.1925 484.329 69.557C484.329 66.9215 483.152 63.6136 476.23 61.7035C471.659 60.4429 471.02 56.886 463.397 56.886Z" fill="#1F161E"/>
<ellipse cx="455.04" cy="80.034" rx="2.45515" ry="1.26542" fill="#FA9E9F"/>
<ellipse cx="470.482" cy="80.034" rx="2.45515" ry="1.26542" fill="#FA9E9F"/>
<path d="M461.038 77.4092C460.578 78.0587 458.235 80.7832 460.707 81.8826" stroke="#1F161E" stroke-linecap="round"/>
<path d="M465.655 85.062C466.67 84.8148 467.554 84.1987 468.132 83.3359" stroke="#1F161E" stroke-linecap="round"/>
<ellipse cx="481.097" cy="78.7745" rx="3.23992" ry="3.20805" fill="#F8CDBA"/>
<path d="M490.86 125.571C490.607 128.634 489.621 143.774 489.991 145.767C485.289 147.387 442.232 167.605 434.783 169.824" stroke="#1F161E" stroke-linecap="round"/>
<path d="M440.853 120.792C439.861 124.221 436.521 139.789 438.869 147.014" stroke="#1F161E" stroke-linecap="round"/>
<path d="M451.845 162.743C454.088 164.307 475.577 173.721 505.289 170.168" stroke="#1F161E" stroke-linecap="round"/>
<path fill-rule="evenodd" clip-rule="evenodd" d="M449.79 147.02C451.23 147.248 446.533 143.532 443.871 144.917C441.209 146.301 437.622 152.554 438.356 154.002C438.556 154.535 438.989 154.949 439.534 155.128C440.079 155.307 440.676 155.232 441.158 154.923C441.88 154.463 447.277 146.62 449.79 147.02Z" fill="#F8CDBA"/>
<path fill-rule="evenodd" clip-rule="evenodd" d="M493.461 341.913C494.229 342.467 501.039 347.03 501.095 349.904C501.151 352.779 494.75 362.308 493.461 362.58C492.172 362.852 491.253 361.776 491.253 359.85C491.253 357.924 493.682 354.55 493.36 353.051C493.038 351.552 489.891 348.811 488.276 348.762" fill="#EBEBEB" fill-opacity="0.25098"/>
<path fill-rule="evenodd" clip-rule="evenodd" d="M457.832 359.217C457.832 360.54 458.605 368.829 457.058 369.6C455.51 370.371 438.438 370.827 437.664 370.061C436.891 369.294 436.42 367.68 437.104 367.219C437.788 366.759 444.393 365.449 445.287 364.839C446.606 363.274 447.214 361.24 446.969 359.217" fill="#EBEBEB" fill-opacity="0.25098"/>
<rect x="14.5791" y="297.658" width="108.389" height="54.4381" fill="#B37361"/>
<path fill-rule="evenodd" clip-rule="evenodd" d="M176.366 272.145C176.838 274.92 184.83 338.359 186.125 339.408C187.42 340.457 201.168 342.782 202.345 341.039C202.581 338.264 202.905 294.021 203.634 290.064" fill="#1F161E"/>
<path fill-rule="evenodd" clip-rule="evenodd" d="M21.7258 258.909C16.1826 256.206 27.7404 309.784 58.1583 309.784C88.5762 309.784 139.777 263.904 148.067 263.904C166.367 263.904 209.688 299.479 213.084 299.479C215.685 296.903 220.886 292.398 220.886 290.599C220.886 288.801 179.409 221.226 148.374 221.226C136.342 221.242 34.2421 265.03 21.7258 258.909Z" fill="black"/>
<path fill-rule="evenodd" clip-rule="evenodd" d="M38.8439 259.822C44.9253 258.456 52.4924 254.921 59.1897 251.308C40.9674 257.202 26.036 261.02 21.7258 258.911C18.7884 257.48 20.6495 271.82 27.557 285.634C26.3045 282.961 24.5224 263.06 38.8439 259.822Z" fill="#1F161E"/>
<path fill-rule="evenodd" clip-rule="evenodd" d="M52.2494 165.827C57.0419 165.954 81.9894 165.226 88.8276 171.677C93.8995 176.46 109.673 217.601 112.105 232.047C101.512 237.381 25.0994 273.604 1.45779 257.677C0.936635 245.3 3.36385 196.102 18.8297 170.3C24.4835 166.57 47.6428 165.71 52.2494 165.827Z" fill="white"/>
<path fill-rule="evenodd" clip-rule="evenodd" d="M61.9692 154.056H47.3913V169.562C47.3913 173.447 61.9692 173.411 61.9692 169.562V154.056Z" fill="#F8CDBA"/>
<path fill-rule="evenodd" clip-rule="evenodd" d="M47.3962 163.418C47.3962 161.698 52.2105 157.375 55.1868 157.524C55.2597 155.609 48.3839 152.857 48.3839 152.857L47.3913 155.503L47.3962 163.418Z" fill="#1F161E"/>
<path fill-rule="evenodd" clip-rule="evenodd" d="M77.231 154.056C77.5584 152.554 77.7238 151.022 77.7242 149.485C77.7242 138.041 68.6944 128.762 57.546 128.762C46.3976 128.762 37.3679 138.041 37.3679 149.485C37.3679 151.016 37.5328 152.548 37.8599 154.05L77.231 154.056Z" fill="#1F161E"/>
<path fill-rule="evenodd" clip-rule="evenodd" d="M71.9125 140.087C69.4403 139.715 66.9742 137.789 65.2541 136.53C55.4456 143.645 49.1625 143.735 48.4835 143.735C47.8044 143.735 45.0419 147.665 43.77 148.109L43.6582 148.043C44.6718 153.699 48.8279 158.302 54.3919 159.93C59.9558 161.558 65.971 159.931 69.9267 155.729C73.8825 151.526 75.0987 145.471 73.0678 140.089C72.6846 140.136 72.2969 140.136 71.9137 140.089L71.9125 140.087Z" fill="#F8CDBA"/>
<ellipse cx="46.6175" cy="125.453" rx="5.95262" ry="5.89405" fill="#1F161E"/>
<path d="M49.2682 143.422C47.929 143.481 46.8737 144.573 46.8737 145.9C46.8737 147.228 47.929 148.32 49.2682 148.378" stroke="#1F161E" stroke-linecap="round"/>
<path d="M68.3482 143.739C69.0771 144.709 70.971 146.414 68.3482 148.217" stroke="#1F161E" stroke-linecap="round"/>
<path d="M60.3948 149.516C60.3278 150.788 61.088 151.96 62.2838 152.429" stroke="#1F161E" stroke-linecap="round"/>
<ellipse cx="55.5124" cy="148.501" rx="2.30937" ry="1.18723" fill="#FA9E9F"/>
<ellipse cx="72.6802" cy="148.501" rx="2.30937" ry="1.18723" fill="#FA9E9F"/>
<path fill-rule="evenodd" clip-rule="evenodd" d="M88.3016 208.71L103.878 204.741C105.375 207.261 112.661 232.018 112.661 232.018L88.6175 242.054C88.9297 237.364 89.876 215.887 88.3016 208.71Z" fill="#F8CDBA"/>
<path d="M33.687 204.831C33.1548 208.985 32.3118 213.094 31.165 217.124" stroke="#1F161E" stroke-linecap="round"/>
<path d="M88.3016 208.712C87.9262 205.775 85.7286 189.232 81.9846 180.524" stroke="#1F161E" stroke-linecap="round"/>
<path fill-rule="evenodd" clip-rule="evenodd" d="M88.3016 208.71L103.878 204.741C105.375 207.261 112.661 232.018 112.661 232.018L88.6175 242.054C88.9297 237.364 89.876 215.887 88.3016 208.71Z" fill="#F8CDBA"/>
<path fill-rule="evenodd" clip-rule="evenodd" d="M213.55 298.168C213.897 298.722 218.538 304.361 220.18 304.423C221.823 304.484 231.794 297.796 231.356 296.363C230.919 294.931 224.664 295.864 223.588 295.359C222.001 294.369 220.674 293.02 219.715 291.424" fill="#1F161E"/>
<path fill-rule="evenodd" clip-rule="evenodd" d="M189.027 339.997C188.906 340.613 188.276 347.879 189.413 349.055C190.551 350.231 202.412 352.274 203.107 350.936C203.802 349.599 198.623 345.974 198.225 344.876C197.785 343.075 197.785 341.195 198.225 339.394" fill="#1F161E"/>
<path fill-rule="evenodd" clip-rule="evenodd" d="M170.425 233.574H117.643L130.209 200.602H182.991L170.425 233.574Z" fill="#969696"/>
<rect x="73.6618" y="232.331" width="52.7815" height="1.24256" fill="#969696"/>
<path fill-rule="evenodd" clip-rule="evenodd" d="M31.165 217.129C30.1506 220.881 25.2233 236.977 27.2302 239.751C29.2371 242.524 79.4905 236.237 92.9374 232.092C96.362 230.982 98.9009 228.074 100.419 227.697C104.459 227.018 108.365 229.464 109.477 233.368C104.112 235.943 26.5803 275.136 1.46022 257.694C-3.2873 254.326 5.04151 213.256 5.42296 211.186C9.6639 211.691 31.165 217.129 31.165 217.129Z" fill="#F8CDBA"/>
<path d="M89.0196 233.092C90.5333 232.731 91.8562 232.387 92.9435 232.053C96.368 230.943 98.907 228.036 100.426 227.658C104.465 226.98 108.371 229.425 109.483 233.33" stroke="#1F161E" stroke-linecap="round"/>
</g>
</svg>
